<?xml version="1.0" encoding="iso-8859-1"?>
<!-- Generator: Adobe Illustrator 28.2.0, SVG Export Plug-In . SVG Version: 6.00 Build 0)  -->
<svg version="1.1" xmlns="http://www.w3.org/2000/svg" xmlns:xlink="http://www.w3.org/1999/xlink" x="0px" y="0px"
	 viewBox="0 0 1104.943 1472.86" style="enable-background:new 0 0 1104.943 1472.86;" xml:space="preserve">
<g id="Layer_2" style="display:none;">
	<g id="Guides" style="display:inline;">
	</g>
	<g id="Guides_00000134214728018017362120000016114261675756291484_" style="display:inline;">
	</g>
</g>
<g id="Layer_1">
	<g>
		<g>
			<path style="fill:#FFFFFF;" d="M2028.676,1327.607c-26.461-17.185-46.349-77.607-69.263-101.927
				c63.415-16.806,75.512-100.585,3.789-116.911c-37.228-8.474-82.521-1.844-121.335-3.982c-6.625-0.365-13.428,0.469-20.041,0.157
				l0.017,9.105c8.987,1.273,25.636,3.53,27.515,13.808v189.567c-1.878,10.276-18.528,12.541-27.516,13.806l0.001,9.12h94.76
				c5.662-14.072-21.397-9.765-21.397-22.93v-84.079c4.28,0.06,8.953-0.733,13.108,0.644c17.963,5.954,45.975,86.695,69.549,101.654
				c20.225,12.834,47.997,6.736,70.182,4.697C2049.394,1331.928,2035.892,1332.293,2028.676,1327.607z M1895.205,1218.054v-97.837
				c38.628-3.721,64.294,4.047,64.366,47.398C1959.646,1212.247,1936.422,1221.862,1895.205,1218.054z"/>
			<path style="fill:#FFFFFF;" d="M1747.772,1318.127l-75.363-211.383l-19.015,0.077l-84.102,205.645
				c-5.438,13.495-18.138,17.499-31.73,18.764l0.001,9.12h73.362l-1.819-9.438l-19.828-7.775l18.247-57.407
				c2.153-3.08,68.221-3.62,72.224,1.196c4.131,25.108,36.599,62.616-7.691,64.286l3.059,9.138h100.874l0.001-9.12
				C1765.85,1329.962,1753.036,1327.797,1747.772,1318.127z M1617.039,1248.628c0.891-6.805,25.667-80.235,30.531-76.428
				l24.491,76.428H1617.039z"/>
			<path style="fill:#FFFFFF;" d="M1487.947,1318.127l-75.362-211.383l-19.015,0.077l-85.668,210.194
				c-6.266,9.898-19.135,13.037-30.165,14.215l0.001,9.119h73.363l-1.82-9.438l-19.828-7.775l18.247-57.407
				c2.153-3.08,68.221-3.62,72.225,1.196c4.131,25.108,36.599,62.616-7.691,64.286l3.059,9.138h100.873l0.001-9.12
				C1506.025,1329.962,1493.211,1327.797,1487.947,1318.127z M1357.214,1248.628c0.891-6.805,25.667-80.235,30.531-76.428
				l24.491,76.428H1357.214z"/>
			<path style="fill:#FFFFFF;" d="M2285.24,1316.154c-21.622,3.046-37.233,8.873-61.164,5.584
				c-94.663-13.007-93.506-195.732-9.171-207.37c9.211-1.271,32.115-1.561,40.309,1.765c8.54,3.467,11.394,40.014,16.154,49.824
				l8.978,0.144l9.202-61.162c-51.54-8.188-105.941-10.636-149.537,23.186c-49.044,38.05-53.729,124.7-16.812,172.213
				c38.301,49.294,119.807,55.492,169.36,20.096C2293.81,1313.965,2289.795,1315.512,2285.24,1316.154z"/>
		</g>
		<path style="fill:#FFFFFF;" d="M2011.02,1025.461l0.827-23.775l16.105-9.307l-16.85-23.839l-0.044-106.771l22.01-23.783
			c-12.961-15.553-28.552-28.563-45.828-39.379l-0.725-104.092c-0.037-0.676-0.11-1.333-0.213-1.976v-18.783
			c0-9.35-6.63-17.15-15.444-18.959v-13.061c0-9.955-7.519-18.147-17.187-19.226c-0.226-2.391-0.48-4.574-0.821-6.305
			c-13.394-67.894-45.274-131.743-101.153-173.646v-23.493h-39.148l-0.008-17.155h20.74V383.6h-20.732v-83.471
			c0.086-0.086,0.135-0.135,0.222-0.222h23.746v-17.646h-30.407v-35.293l-14.007-18.216h-0.556v-43.027
			c0.203-0.202,0.318-0.318,0.521-0.52h6.026v-26.153h-6.546v-41.325l26.571-10.823l30.533,25.415l4.328-5.199l-27.762-23.108
			l55.622-22.656l35.108,29.223l4.327-5.199l-74.005-61.6l-4.328,5.199l32.263,26.855l-55.622,22.656l-39.609-32.97l-4.327,5.199
			l36.838,30.663l-58.777,23.941l-42.975-35.771l-4.328,5.199l40.203,33.464l-56.829,23.148l-40.406-33.633l-4.327,5.199
			l74.005,61.6l4.328-5.199l-26.964-22.444l56.828-23.148l17.815,14.829v3.717v6.768h-8.111v26.153h8.111v43.83l-14.088,17.933
			v35.293h-31.593v17.646h23.712V383.6h-18.904v18.314h18.912l-0.008,17.155h-37.32v24.793h0.572
			c-68.426,43.326-95.567,110.307-95.567,110.307v58.329h-4.053c-7.13,0-12.91,5.78-12.91,12.91v16.045h-4.053
			c-7.13,0-12.91,5.78-12.91,12.91v22.896c-0.082,0.326-0.168,0.65-0.271,0.959c-0.72,2.163-6.513,4.778-8.965,8
			c-5.267,6.919-7.091,17.481-5.786,26.002c1.317,4.468,6.985-1.699,8.241,5.297c-1.359,20.906,1.806,43.907,0.055,64.529
			c-1.51,17.795-7.862,14.811-18.126,25.136c-5.06,5.09-27.542,30.567-27.817,35.829l20.408,22.145l0.058,111.973l-17.007,15.246
			l15.284,8.484v24.602h-44.105v0.421h-5.809v38.708h238.009v-38.708h-0.244c-5.581-5.12-26.708-18.228-26.708-18.228l1.597-174.874
			c65.74-5.681,135.935-8.298,200.62,6.549c11.012,2.528,24.494,5.591,33.582,12.222v213.039h110.262v-38.708v-0.421H2011.02z
			 M1677.287,535.552l13.125-6.513v37.653c-4.601,0.971-9.144,2.251-13.571,3.759L1677.287,535.552z M1649.7,552.935l18.66-11.028
			c0.448,10.394-0.614,20.997,0,31.389c0.005,0.083,0.077,0.182,0.172,0.288c-6.752,2.779-13.104,5.95-18.831,9.142V552.935z
			 M1649.7,697.783l27.141-6.323v63.194l-27.141,7.306V697.783z M1624.255,568.205l18.66-11.029v29.498
			c-8.685,5.28-15.281,10.129-18.66,12.735V568.205z M1615.773,705.687l27.141-6.323v64.423l-27.141,7.306V705.687z
			 M1581.846,713.591l27.141-6.323v65.652l-27.141,7.306V713.591z M1585.239,965.517l-23.749,5.703v-99.929l23.749-5.612V965.517z
			 M1624.255,956.147l-27.141,6.518v-99.793l27.141-6.414V956.147z M1661.574,947.185l-25.445,6.111v-99.643l25.445-6.013V947.185z
			 M1696.736,938.74l-23.287,5.593v-99.5l23.714-5.604L1696.736,938.74z M1701.89,747.912l-18.263,4.916v-62.949l18.263-4.255
			V747.912z M1709.385,564.745c-3.83-0.062-7.675,0.159-11.505,0.655l-0.682-0.589l-1.004-39.428l13.191-5.772V564.745z
			 M1770.056,126.481v7.91v5.375l-10.716-8.92L1770.056,126.481z M1944.854,781.133c-81.583-37.386-198.848-32.662-234.086-28.838
			V570.451h8.863v-54.99c0,0-0.095-48.623,25.074-71.103l90.38-0.495c52.941,36.483,89.01,95.907,102.776,158.492
			C1950.655,660.519,1942.624,721.889,1944.854,781.133z"/>
		<g>
			<path style="fill:#FFFFFF;" d="M1293.751,1376.341l-19.838,51.445h10.177l4.184-10.598h20.992l4.025,10.598h10.177
				l-19.786-51.445H1293.751z M1291.877,1407.64l6.901-17.66l6.862,17.66H1291.877z"/>
			<path style="fill:#FFFFFF;" d="M1355.696,1408.384c0,3.449-0.239,5.784-0.717,7.007s-1.34,2.231-2.588,3.022
				c-1.246,0.793-2.734,1.189-4.458,1.189c-1.632,0-3.025-0.354-4.179-1.065c-1.154-0.711-1.982-1.66-2.483-2.849
				c-0.503-1.187-0.752-3.215-0.752-6.08v-33.266h-9.828v30.67c0,6.133,0.594,10.487,1.784,13.062
				c1.189,2.577,3.164,4.722,5.927,6.435c2.763,1.714,6.009,2.572,9.74,2.572c2.844,0,5.338-0.45,7.485-1.347
				c2.145-0.897,4.039-2.278,5.683-4.145c1.644-1.865,2.757-3.8,3.34-5.805c0.582-2.005,0.874-5.595,0.874-10.772v-30.67h-9.828
				V1408.384z"/>
			<path style="fill:#FFFFFF;" d="M1399.333,1402.744c-0.795-0.816-3.06-2.785-6.797-5.91c-3.993-3.38-6.387-5.582-7.18-6.609
				c-0.585-0.77-0.877-1.584-0.877-2.448c0-0.862,0.409-1.637,1.226-2.325c0.818-0.688,1.868-1.032,3.152-1.032
				c2.639,0,5.233,1.773,7.778,5.315l7.252-6.4c-2.707-3.147-5.223-5.315-7.546-6.504c-2.321-1.19-4.768-1.784-7.335-1.784
				c-3.991,0-7.348,1.276-10.067,3.83c-2.72,2.552-4.079,5.612-4.079,9.18c0,2.471,0.816,4.949,2.452,7.432
				c1.635,2.483,5.254,6.009,10.86,10.579c2.943,2.401,4.847,4.184,5.711,5.35c0.864,1.166,1.296,2.331,1.296,3.497
				c0,1.283-0.572,2.414-1.716,3.393c-1.144,0.979-2.557,1.469-4.237,1.469c-3.223,0-6.072-2.274-8.547-6.819l-8.232,4.966
				c1.937,3.846,4.265,6.667,6.985,8.463c2.719,1.795,5.91,2.694,9.575,2.694c4.69,0,8.496-1.376,11.412-4.126
				c2.918-2.752,4.377-6.237,4.377-10.458c0-2.168-0.415-4.168-1.245-5.998C1402.724,1406.668,1401.318,1404.75,1399.333,1402.744z"
				/>
			<polygon style="fill:#FFFFFF;" points="1409.065,1385.991 1418.192,1385.991 1418.192,1427.785 1428.125,1427.785 
				1428.125,1385.991 1437.498,1385.991 1437.498,1376.341 1409.065,1376.341 			"/>
			<rect x="1443.512" y="1376.341" style="fill:#FFFFFF;" width="9.722" height="51.445"/>
			<polygon style="fill:#FFFFFF;" points="1495.692,1410.194 1473.679,1376.341 1464.287,1376.341 1464.287,1427.785 
				1474.078,1427.785 1474.078,1394.035 1496.065,1427.785 1505.484,1427.785 1505.484,1376.341 1495.692,1376.341 			"/>
			<path style="fill:#FFFFFF;" d="M1552.97,1376.341l-19.84,51.445h10.177l4.186-10.598h20.991l4.026,10.598h10.177l-19.787-51.445
				H1552.97z M1551.094,1407.64l6.903-17.66l6.86,17.66H1551.094z"/>
			<polygon style="fill:#FFFFFF;" points="1628.749,1376.341 1616.715,1412.222 1604.789,1376.341 1595.248,1376.341 
				1586.342,1427.785 1595.889,1427.785 1601.538,1395.295 1612.369,1427.785 1621,1427.785 1631.929,1395.295 1637.446,1427.785 
				1646.914,1427.785 1638.285,1376.341 			"/>
			<path style="fill:#FFFFFF;" d="M1670.409,1376.341l-19.84,51.445h10.177l4.186-10.598h20.991l4.026,10.598h10.177l-19.787-51.445
				H1670.409z M1668.533,1407.64l6.903-17.66l6.86,17.66H1668.533z"/>
			<polygon style="fill:#FFFFFF;" points="1702.625,1385.991 1711.754,1385.991 1711.754,1427.785 1721.685,1427.785 
				1721.685,1385.991 1731.058,1385.991 1731.058,1376.341 1702.625,1376.341 			"/>
			<polygon style="fill:#FFFFFF;" points="1737.809,1427.785 1765.893,1427.785 1765.893,1418.167 1747.531,1418.167 
				1747.531,1404.633 1765.893,1404.633 1765.893,1395.226 1747.531,1395.226 1747.531,1385.922 1765.893,1385.922 
				1765.893,1376.341 1737.809,1376.341 			"/>
			<path style="fill:#FFFFFF;" d="M1799.675,1408.384c0,3.449-0.239,5.784-0.717,7.007c-0.478,1.223-1.34,2.231-2.589,3.022
				c-1.246,0.793-2.734,1.189-4.458,1.189c-1.632,0-3.025-0.354-4.179-1.065c-1.154-0.711-1.982-1.66-2.483-2.849
				c-0.503-1.187-0.752-3.215-0.752-6.08v-33.266h-9.828v30.67c0,6.133,0.594,10.487,1.784,13.062
				c1.189,2.577,3.164,4.722,5.927,6.435c2.763,1.714,6.009,2.572,9.74,2.572c2.844,0,5.338-0.45,7.485-1.347
				c2.145-0.897,4.039-2.278,5.683-4.145c1.644-1.865,2.757-3.8,3.34-5.805c0.582-2.005,0.874-5.595,0.874-10.772v-30.67h-9.828
				V1408.384z"/>
			<path style="fill:#FFFFFF;" d="M1849.635,1399.755c1.619-2.274,2.43-5.101,2.43-8.481c0-3.218-0.734-6.004-2.201-8.359
				c-1.467-2.356-3.406-4.039-5.816-5.055c-2.411-1.014-6.458-1.52-12.139-1.52h-10.375v51.445h9.793v-21.789h0.895l11.569,21.789
				h10.705l-12.187-22.872C1845.572,1403.748,1848.014,1402.026,1849.635,1399.755z M1840.826,1395.221
				c-1.174,0.819-3.317,1.228-6.431,1.228h-3.068v-10.561h2.684c2.603,0,4.394,0.181,5.37,0.544c0.976,0.363,1.754,0.96,2.336,1.789
				c0.58,0.831,0.87,1.807,0.87,2.93C1842.586,1393.046,1842,1394.403,1840.826,1395.221z"/>
			<path style="fill:#FFFFFF;" d="M1911.22,1399.755c1.621-2.274,2.43-5.101,2.43-8.481c0-3.218-0.734-6.004-2.201-8.359
				c-1.467-2.356-3.406-4.039-5.816-5.055c-2.411-1.014-6.456-1.52-12.139-1.52h-10.373v51.445h9.792v-21.789h0.897l11.569,21.789
				h10.704l-12.187-22.872C1907.158,1403.748,1909.599,1402.026,1911.22,1399.755z M1902.413,1395.221
				c-1.174,0.819-3.319,1.228-6.433,1.228h-3.068v-10.561h2.686c2.603,0,4.392,0.181,5.368,0.544
				c0.976,0.363,1.754,0.96,2.336,1.789c0.58,0.831,0.872,1.807,0.872,2.93C1904.174,1393.046,1903.587,1394.403,1902.413,1395.221z
				"/>
			<path style="fill:#FFFFFF;" d="M1939.697,1376.341l-19.838,51.445h10.177l4.184-10.598h20.992l4.024,10.598h10.177
				l-19.786-51.445H1939.697z M1937.823,1407.64l6.901-17.66l6.862,17.66H1937.823z"/>
			<path style="fill:#FFFFFF;" d="M2005.289,1379.12c-3.634-1.853-9.19-2.779-16.666-2.779h-11.602v51.445h11.776
				c6.662,0,11.345-0.42,14.047-1.26c2.702-0.839,5.212-2.354,7.53-4.547c2.318-2.191,4.135-4.948,5.452-8.27
				c1.316-3.324,1.974-6.966,1.974-10.929c0-5.573-1.175-10.446-3.528-14.619C2011.917,1383.987,2008.924,1380.973,2005.289,1379.12
				z M2005.979,1411.515c-1.281,2.428-2.931,4.155-4.948,5.182c-2.018,1.027-5.264,1.542-9.74,1.542h-4.547v-32.456h3.324
				c6.085,0,10.502,1.354,13.254,4.061c3.055,3.012,4.582,7.247,4.582,12.709C2007.902,1406.1,2007.261,1409.088,2005.979,1411.515z
				"/>
			<rect x="2026.438" y="1376.341" style="fill:#FFFFFF;" width="9.722" height="51.445"/>
			<path style="fill:#FFFFFF;" d="M2071.466,1375.046c-4.807,0-9.292,1.207-13.456,3.619c-4.165,2.414-7.437,5.683-9.816,9.811
				c-2.379,4.127-3.569,8.649-3.569,13.569c0,7.345,2.555,13.687,7.664,19.025c5.109,5.338,11.524,8.009,19.247,8.009
				c7.373,0,13.643-2.6,18.81-7.8c5.168-5.198,7.752-11.552,7.752-19.06c0-7.577-2.618-14.001-7.856-19.27
				C2085.004,1377.681,2078.745,1375.046,2071.466,1375.046z M2083.404,1414.564c-3.268,3.358-7.224,5.037-11.869,5.037
				c-4.107,0-7.749-1.294-10.922-3.882c-4.084-3.311-6.126-7.81-6.126-13.499c0-5.106,1.622-9.313,4.867-12.625
				c3.243-3.311,7.246-4.966,12.007-4.966c4.715,0,8.716,1.697,12.007,5.089c3.291,3.391,4.938,7.536,4.938,12.433
				C2088.306,1407.07,2086.672,1411.208,2083.404,1414.564z"/>
			<path style="fill:#FFFFFF;" d="M2152.081,1384.523c5.823,0,11.064,2.463,15.723,7.387l6.849-6.529
				c-2.844-3.306-6.23-5.854-10.159-7.646c-3.929-1.794-8.014-2.689-12.258-2.689c-4.99,0-9.648,1.212-13.972,3.637
				c-4.324,2.425-7.646,5.63-9.966,9.617c-2.321,3.988-3.48,8.547-3.48,13.676c0,7.926,2.547,14.425,7.642,19.497
				c5.094,5.071,11.639,7.607,19.637,7.607c4.336,0,8.196-0.719,11.575-2.151c3.381-1.434,6.972-4.006,10.772-7.716l-6.639-6.928
				c-2.819,2.801-5.404,4.732-7.757,5.793c-2.353,1.063-4.951,1.592-7.792,1.592c-3.332,0-6.361-0.758-9.086-2.275
				c-2.725-1.517-4.834-3.606-6.324-6.267c-1.49-2.659-2.236-5.706-2.236-9.137c0-4.925,1.682-9.066,5.048-12.428
				C2143.025,1386.204,2147.165,1384.523,2152.081,1384.523z"/>
			<polygon style="fill:#FFFFFF;" points="2193.014,1376.341 2183.222,1376.341 2183.222,1427.785 2207.283,1427.785 
				2207.283,1418.447 2193.014,1418.447 			"/>
			<path style="fill:#FFFFFF;" d="M2239.387,1408.384c0,3.449-0.239,5.784-0.717,7.007c-0.478,1.223-1.341,2.231-2.589,3.022
				c-1.246,0.793-2.733,1.189-4.458,1.189c-1.632,0-3.025-0.354-4.179-1.065c-1.154-0.711-1.982-1.66-2.483-2.849
				c-0.503-1.187-0.751-3.215-0.751-6.08v-33.266h-9.828v30.67c0,6.133,0.594,10.487,1.784,13.062
				c1.189,2.577,3.164,4.722,5.927,6.435c2.763,1.714,6.01,2.572,9.74,2.572c2.844,0,5.338-0.45,7.485-1.347
				c2.145-0.897,4.039-2.278,5.683-4.145c1.644-1.865,2.757-3.8,3.34-5.805c0.582-2.005,0.874-5.595,0.874-10.772v-30.67h-9.827
				V1408.384z"/>
			<path style="fill:#FFFFFF;" d="M2290.623,1404.964c-1.446-2.203-3.731-4.039-6.855-5.508c1.865-1.398,3.212-2.897,4.039-4.494
				c0.828-1.596,1.241-3.375,1.241-5.332c0-3.009-0.91-5.619-2.73-7.834c-1.822-2.216-4.273-3.731-7.354-4.547
				c-2.171-0.605-5.602-0.908-10.294-0.908h-8.088v51.445h14.424c4.155,0,7.411-0.589,9.768-1.766
				c2.358-1.177,4.283-2.956,5.777-5.333c1.493-2.379,2.24-5.014,2.24-7.905C2292.791,1409.774,2292.069,1407.169,2290.623,1404.964
				z M2270.374,1385.677h2.528c2.245,0,3.919,0.473,5.02,1.418c1.1,0.943,1.65,2.221,1.65,3.828c0,1.726-0.58,3.09-1.738,4.092
				c-1.159,1.004-2.933,1.504-5.318,1.504h-2.142V1385.677z M2281.051,1416.909c-1.413,1.026-4.155,1.538-8.223,1.538h-2.453
				v-13.184h2.033c3.858,0,6.616,0.641,8.276,1.922c1.66,1.283,2.491,3.032,2.491,5.246
				C2283.174,1414.39,2282.465,1415.882,2281.051,1416.909z"/>
		</g>
		<g>
			<path style="fill:#FFFFFF;" d="M1280.758,882.175h17.706v62.158h-11.748v-51.045h-12.803L1280.758,882.175z"/>
			<path style="fill:#FFFFFF;" d="M1338.353,945.897l-10.054-4.992l10.891-21.165c-5.278,0-9.765-1.884-13.462-5.655
				c-3.697-3.771-5.546-8.458-5.546-14.057c0-5.43,1.894-10.024,5.684-13.781c3.788-3.757,8.359-5.635,13.712-5.635
				c5.605,0,10.275,1.948,14.008,5.844c3.732,3.896,5.599,8.378,5.599,13.442c0,1.914-0.289,3.835-0.865,5.761
				c-0.578,1.928-1.909,4.902-3.994,8.926L1338.353,945.897z M1339.832,908.541c2.197,0,4.043-0.801,5.536-2.402
				s2.24-3.582,2.24-5.942c0-2.416-0.782-4.44-2.346-6.07s-3.387-2.444-5.472-2.444c-2.197,0-4.085,0.807-5.662,2.422
				c-1.578,1.617-2.366,3.633-2.366,6.05c0,2.388,0.767,4.382,2.303,5.984C1335.599,907.74,1337.522,908.541,1339.832,908.541z"/>
			<path style="fill:#FFFFFF;" d="M1377.692,882.175h17.706v62.158h-11.748v-51.045h-12.803L1377.692,882.175z"/>
			<path style="fill:#FFFFFF;" d="M1437.021,880.611l10.078,5.04l-10.881,21.117c5.267,0,9.747,1.886,13.437,5.661
				c3.69,3.775,5.536,8.466,5.536,14.071c0,5.408-1.895,9.994-5.683,13.755c-3.79,3.761-8.36,5.641-13.712,5.641
				c-5.606,0-10.276-1.95-14.009-5.852c-3.733-3.902-5.598-8.374-5.598-13.416c0-1.916,0.289-3.847,0.866-5.791
				c0.577-1.942,1.908-4.928,3.993-8.958L1437.021,880.611z M1435.542,917.965c-2.197,0-4.043,0.797-5.536,2.386
				c-1.493,1.594-2.239,3.586-2.239,5.98s0.782,4.41,2.345,6.044c1.564,1.633,3.387,2.45,5.472,2.45
				c2.198,0,4.085-0.803,5.662-2.408s2.366-3.635,2.366-6.086c0-2.394-0.768-4.386-2.303-5.98
				C1439.773,918.762,1437.851,917.965,1435.542,917.965z"/>
			<rect x="1271.229" y="848.84" style="fill:#FFFFFF;" width="183.961" height="8.82"/>
			<rect x="1271.229" y="968.011" style="fill:#FFFFFF;" width="183.961" height="8.82"/>
		</g>
		<g>
			<path style="fill:#FFFFFF;" d="M2118.064,902.205h-11.536c0.31-6.705,2.415-11.98,6.317-15.826
				c3.901-3.845,8.909-5.767,15.022-5.767c3.775,0,7.105,0.797,9.993,2.386c2.887,1.592,5.198,3.888,6.93,6.888
				c1.733,3,2.599,6.05,2.599,9.149c0,3.689-1.05,7.661-3.149,11.916c-2.1,4.253-5.94,9.281-11.521,15.085l-6.975,7.352h22.153
				v10.944h-43.059v-5.663l19.226-19.607c4.648-4.703,7.74-8.486,9.276-11.344c1.535-2.859,2.303-5.444,2.303-7.755
				c0-2.394-0.796-4.372-2.387-5.936c-1.592-1.564-3.641-2.345-6.148-2.345c-2.535,0-4.648,0.944-6.338,2.831
				S2118.176,898.964,2118.064,902.205z"/>
			<path style="fill:#FFFFFF;" d="M2175.489,880.611c4.536,0,8.444,1.114,11.726,3.339s5.818,5.627,7.606,10.203
				c1.789,4.58,2.683,10.952,2.683,19.121c0,8.255-0.908,14.677-2.725,19.268c-1.818,4.594-4.262,7.966-7.331,10.121
				c-3.071,2.155-6.945,3.233-11.62,3.233c-4.677,0-8.606-1.086-11.79-3.255c-3.184-2.169-5.677-5.464-7.479-9.888
				c-1.804-4.422-2.705-10.717-2.705-18.888c0-11.408,1.761-19.677,5.282-24.804
				C2163.051,883.428,2168.502,880.611,2175.489,880.611z M2175.763,891.85c-1.997,0-3.768,0.641-5.314,1.924
				c-1.547,1.281-2.727,3.486-3.542,6.611c-0.816,3.127-1.223,7.705-1.223,13.735c0,7.858,0.934,13.289,2.805,16.288
				c1.868,3,4.294,4.5,7.274,4.5c2.866,0,5.144-1.422,6.831-4.267c2.053-3.436,3.079-9.183,3.079-17.241
				c0-8.169-0.921-13.802-2.762-16.902C2181.069,893.4,2178.687,891.85,2175.763,891.85z"/>
			<path style="fill:#FFFFFF;" d="M2214.998,902.205h-11.536c0.31-6.705,2.415-11.98,6.317-15.826
				c3.901-3.845,8.909-5.767,15.022-5.767c3.775,0,7.105,0.797,9.993,2.386c2.887,1.592,5.198,3.888,6.93,6.888
				c1.733,3,2.599,6.05,2.599,9.149c0,3.689-1.05,7.661-3.149,11.916c-2.099,4.253-5.94,9.281-11.521,15.085l-6.975,7.352h22.153
				v10.944h-43.059v-5.663l19.226-19.607c4.648-4.703,7.74-8.486,9.276-11.344c1.535-2.859,2.303-5.444,2.303-7.755
				c0-2.394-0.796-4.372-2.387-5.936s-3.641-2.345-6.148-2.345c-2.535,0-4.648,0.944-6.338,2.831S2215.11,898.964,2214.998,902.205z
				"/>
			<path style="fill:#FFFFFF;" d="M2262.832,882.175h29.114v10.944h-20.282l-2.536,11.283c0.704-0.197,1.395-0.345,2.071-0.444
				s1.323-0.147,1.943-0.147c5.634,0,10.317,1.922,14.051,5.767c3.732,3.846,5.598,8.769,5.598,14.769
				c0,6.058-2.064,11.163-6.19,15.318c-4.127,4.155-9.148,6.233-15.064,6.233c-5.297,0-9.845-1.508-13.648-4.522
				c-3.804-3.014-6.297-7.141-7.48-12.382h12.424c0.957,1.944,2.218,3.416,3.782,4.416c1.563,1,3.289,1.5,5.176,1.5
				c2.619,0,4.844-0.942,6.676-2.831c1.831-1.886,2.747-4.311,2.747-7.269c0-2.872-0.853-5.231-2.557-7.078
				c-1.705-1.845-3.768-2.767-6.19-2.767c-1.297,0-2.572,0.325-3.825,0.972c-1.254,0.647-2.486,1.619-3.697,2.914l-9.634-2.153
				L2262.832,882.175z"/>
			<rect x="2106.528" y="848.84" style="fill:#FFFFFF;" width="186.262" height="8.82"/>
			<rect x="2106.528" y="968.011" style="fill:#FFFFFF;" width="186.262" height="8.82"/>
		</g>
	</g>
	<g>
		<g>
			<path d="M799.138,1327.607c-26.461-17.185-46.349-77.607-69.263-101.927c63.415-16.806,75.512-100.585,3.789-116.911
				c-37.228-8.474-82.521-1.844-121.335-3.982c-6.625-0.365-13.428,0.469-20.041,0.157l0.017,9.105
				c8.987,1.273,25.636,3.53,27.515,13.808v189.567c-1.878,10.276-18.528,12.541-27.516,13.806l0.001,9.12h94.76
				c5.662-14.072-21.397-9.765-21.397-22.93v-84.079c4.281,0.06,8.953-0.733,13.108,0.644
				c17.963,5.954,45.975,86.695,69.549,101.654c20.225,12.834,47.997,6.736,70.182,4.697
				C819.856,1331.928,806.354,1332.293,799.138,1327.607z M665.667,1218.054v-97.837c38.628-3.721,64.294,4.047,64.366,47.398
				C730.108,1212.247,706.883,1221.862,665.667,1218.054z"/>
			<path d="M518.234,1318.127l-75.363-211.383l-19.015,0.077l-84.102,205.645c-5.438,13.495-18.138,17.499-31.73,18.764l0.001,9.12
				h73.362l-1.819-9.438l-19.828-7.775l18.247-57.407c2.153-3.08,68.221-3.62,72.224,1.196c4.131,25.108,36.599,62.616-7.691,64.286
				l3.059,9.138h100.873l0.001-9.12C536.311,1329.962,523.498,1327.797,518.234,1318.127z M387.5,1248.628
				c0.891-6.805,25.667-80.235,30.531-76.428l24.491,76.428H387.5z"/>
			<path d="M258.408,1318.127l-75.362-211.383l-19.015,0.077l-85.668,210.194c-6.266,9.898-19.135,13.037-30.165,14.215l0.001,9.119
				h73.363l-1.82-9.438l-19.828-7.775l18.247-57.407c2.153-3.08,68.221-3.62,72.225,1.196c4.131,25.108,36.599,62.616-7.691,64.286
				l3.059,9.138h100.874l0.001-9.12C276.486,1329.962,263.673,1327.797,258.408,1318.127z M127.675,1248.628
				c0.891-6.805,25.667-80.235,30.531-76.428l24.491,76.428H127.675z"/>
			<path d="M1055.701,1316.154c-21.622,3.046-37.233,8.873-61.164,5.584c-94.663-13.007-93.506-195.732-9.171-207.37
				c9.211-1.271,32.115-1.561,40.309,1.765c8.54,3.467,11.394,40.014,16.154,49.824l8.978,0.144l9.202-61.162
				c-51.54-8.188-105.941-10.636-149.537,23.186c-49.044,38.05-53.729,124.7-16.812,172.213
				c38.301,49.294,119.808,55.492,169.36,20.096C1064.271,1313.965,1060.257,1315.512,1055.701,1316.154z"/>
		</g>
		<path d="M781.481,1025.461l0.827-23.775l16.105-9.307l-16.85-23.839l-0.044-106.771l22.01-23.783
			c-12.961-15.553-28.552-28.563-45.828-39.379l-0.725-104.092c-0.037-0.676-0.11-1.333-0.213-1.976v-18.783
			c0-9.35-6.63-17.15-15.444-18.959v-13.061c0-9.955-7.519-18.147-17.187-19.226c-0.226-2.391-0.48-4.574-0.821-6.305
			c-13.394-67.894-45.274-131.743-101.153-173.646v-23.493h-39.148l-0.008-17.155h20.74V383.6H583.01v-83.471
			c0.086-0.086,0.135-0.135,0.222-0.222h23.746v-17.646H576.57v-35.293l-14.007-18.216h-0.556v-43.027
			c0.202-0.202,0.318-0.318,0.52-0.52h6.026v-26.153h-6.546v-41.325l26.571-10.823l30.533,25.415l4.327-5.199l-27.762-23.108
			L651.3,81.356l35.108,29.223l4.327-5.199l-74.005-61.6l-4.327,5.199l32.263,26.855l-55.622,22.656l-39.609-32.97l-4.327,5.199
			l36.838,30.663l-58.777,23.941l-42.975-35.771l-4.327,5.199l40.203,33.464l-56.829,23.148l-40.406-33.633l-4.327,5.199
			l74.005,61.6l4.327-5.199l-26.964-22.444l56.829-23.148l17.815,14.829v3.717v6.768h-8.111v26.153h8.111v43.83l-14.088,17.933
			v35.293h-31.593v17.646h23.712V383.6h-18.904v18.314h18.912l-0.008,17.155h-37.32v24.793h0.572
			c-68.426,43.326-95.567,110.307-95.567,110.307v58.329h-4.053c-7.13,0-12.91,5.78-12.91,12.91v16.045h-4.053
			c-7.13,0-12.91,5.78-12.91,12.91v22.896c-0.082,0.326-0.168,0.65-0.271,0.959c-0.72,2.163-6.513,4.778-8.965,8
			c-5.267,6.919-7.091,17.481-5.786,26.002c1.317,4.468,6.985-1.699,8.241,5.297c-1.36,20.906,1.805,43.907,0.055,64.529
			c-1.51,17.795-7.862,14.811-18.126,25.136c-5.061,5.09-27.542,30.567-27.817,35.829l20.408,22.145l0.058,111.973l-17.007,15.246
			l15.284,8.484v24.602h-44.105v0.421h-5.809v38.708h238.009v-38.708h-0.244c-5.581-5.12-26.708-18.228-26.708-18.228l1.597-174.874
			c65.74-5.681,135.934-8.298,200.62,6.549c11.012,2.528,24.494,5.591,33.582,12.222v213.039h110.262v-38.708v-0.421H781.481z
			 M447.748,535.552l13.125-6.513v37.653c-4.601,0.971-9.144,2.251-13.571,3.759L447.748,535.552z M420.161,552.935l18.66-11.028
			c0.448,10.394-0.614,20.997,0,31.389c0.005,0.083,0.077,0.182,0.172,0.288c-6.752,2.779-13.104,5.95-18.831,9.142V552.935z
			 M420.161,697.783l27.141-6.323v63.194l-27.141,7.306V697.783z M394.716,568.205l18.66-11.029v29.498
			c-8.685,5.28-15.281,10.129-18.66,12.735V568.205z M386.235,705.687l27.142-6.323v64.423l-27.142,7.306V705.687z M352.308,713.591
			l27.141-6.323v65.652l-27.141,7.306V713.591z M355.701,965.517l-23.749,5.703v-99.929l23.749-5.612V965.517z M394.716,956.147
			l-27.141,6.518v-99.793l27.141-6.414V956.147z M432.036,947.185l-25.445,6.111v-99.643l25.445-6.013V947.185z M467.197,938.74
			l-23.287,5.593v-99.5l23.714-5.604L467.197,938.74z M472.352,747.912l-18.263,4.916v-62.949l18.263-4.255V747.912z
			 M479.847,564.745c-3.83-0.062-7.675,0.159-11.505,0.655l-0.682-0.589l-1.003-39.428l13.191-5.772V564.745z M540.518,126.481v7.91
			v5.375l-10.716-8.92L540.518,126.481z M715.315,781.133c-81.583-37.386-198.848-32.662-234.086-28.838V570.451h8.863v-54.99
			c0,0-0.095-48.623,25.074-71.103l90.38-0.495c52.941,36.483,89.009,95.907,102.776,158.492
			C721.117,660.519,713.085,721.889,715.315,781.133z"/>
		<g>
			<path d="M64.213,1376.341l-19.838,51.445h10.177l4.184-10.598h20.992l4.025,10.598H93.93l-19.786-51.445H64.213z M62.338,1407.64
				l6.901-17.66l6.862,17.66H62.338z"/>
			<path d="M126.158,1408.384c0,3.449-0.239,5.784-0.717,7.007s-1.34,2.231-2.588,3.022c-1.246,0.793-2.734,1.189-4.458,1.189
				c-1.632,0-3.025-0.354-4.179-1.065c-1.154-0.711-1.982-1.66-2.483-2.849c-0.503-1.187-0.752-3.215-0.752-6.08v-33.266h-9.828
				v30.67c0,6.133,0.594,10.487,1.784,13.062c1.189,2.577,3.164,4.722,5.927,6.435c2.763,1.714,6.009,2.572,9.74,2.572
				c2.844,0,5.338-0.45,7.485-1.347c2.145-0.897,4.039-2.278,5.683-4.145c1.644-1.865,2.757-3.8,3.34-5.805
				c0.582-2.005,0.874-5.595,0.874-10.772v-30.67h-9.828V1408.384z"/>
			<path d="M169.794,1402.744c-0.795-0.816-3.06-2.785-6.797-5.91c-3.993-3.38-6.387-5.582-7.18-6.609
				c-0.585-0.77-0.877-1.584-0.877-2.448c0-0.862,0.409-1.637,1.227-2.325c0.818-0.688,1.868-1.032,3.152-1.032
				c2.639,0,5.233,1.773,7.778,5.315l7.252-6.4c-2.707-3.147-5.223-5.315-7.546-6.504c-2.321-1.19-4.768-1.784-7.335-1.784
				c-3.991,0-7.348,1.276-10.067,3.83c-2.72,2.552-4.079,5.612-4.079,9.18c0,2.471,0.816,4.949,2.451,7.432
				s5.254,6.009,10.86,10.579c2.943,2.401,4.847,4.184,5.711,5.35c0.864,1.166,1.296,2.331,1.296,3.497
				c0,1.283-0.572,2.414-1.716,3.393c-1.144,0.979-2.557,1.469-4.237,1.469c-3.223,0-6.072-2.274-8.547-6.819l-8.232,4.966
				c1.937,3.846,4.265,6.667,6.985,8.463c2.719,1.795,5.91,2.694,9.575,2.694c4.69,0,8.496-1.376,11.412-4.126
				c2.918-2.752,4.377-6.237,4.377-10.458c0-2.168-0.415-4.168-1.245-5.998C173.186,1406.668,171.78,1404.75,169.794,1402.744z"/>
			<polygon points="179.527,1385.991 188.654,1385.991 188.654,1427.785 198.587,1427.785 198.587,1385.991 207.959,1385.991 
				207.959,1376.341 179.527,1376.341 			"/>
			<rect x="213.974" y="1376.341" width="9.722" height="51.445"/>
			<polygon points="266.154,1410.194 244.141,1376.341 234.748,1376.341 234.748,1427.785 244.54,1427.785 244.54,1394.035 
				266.526,1427.785 275.945,1427.785 275.945,1376.341 266.154,1376.341 			"/>
			<path d="M323.431,1376.341l-19.84,51.445h10.177l4.186-10.598h20.991l4.026,10.598h10.177l-19.787-51.445H323.431z
				 M321.555,1407.64l6.903-17.66l6.86,17.66H321.555z"/>
			<polygon points="399.21,1376.341 387.177,1412.222 375.25,1376.341 365.71,1376.341 356.804,1427.785 366.351,1427.785 
				371.999,1395.295 382.831,1427.785 391.462,1427.785 402.391,1395.295 407.907,1427.785 417.375,1427.785 408.746,1376.341 			
				"/>
			<path d="M440.87,1376.341l-19.84,51.445h10.177l4.186-10.598h20.991l4.026,10.598h10.177l-19.787-51.445H440.87z
				 M438.994,1407.64l6.903-17.66l6.86,17.66H438.994z"/>
			<polygon points="473.087,1385.991 482.215,1385.991 482.215,1427.785 492.147,1427.785 492.147,1385.991 501.519,1385.991 
				501.519,1376.341 473.087,1376.341 			"/>
			<polygon points="508.271,1427.785 536.354,1427.785 536.354,1418.167 517.993,1418.167 517.993,1404.633 536.354,1404.633 
				536.354,1395.226 517.993,1395.226 517.993,1385.922 536.354,1385.922 536.354,1376.341 508.271,1376.341 			"/>
			<path d="M570.137,1408.384c0,3.449-0.239,5.784-0.717,7.007c-0.478,1.223-1.34,2.231-2.588,3.022
				c-1.246,0.793-2.734,1.189-4.458,1.189c-1.632,0-3.025-0.354-4.179-1.065s-1.982-1.66-2.483-2.849
				c-0.503-1.187-0.752-3.215-0.752-6.08v-33.266h-9.828v30.67c0,6.133,0.594,10.487,1.784,13.062
				c1.189,2.577,3.164,4.722,5.927,6.435c2.763,1.714,6.009,2.572,9.74,2.572c2.844,0,5.338-0.45,7.485-1.347
				c2.145-0.897,4.039-2.278,5.683-4.145c1.644-1.865,2.757-3.8,3.34-5.805c0.582-2.005,0.874-5.595,0.874-10.772v-30.67h-9.828
				V1408.384z"/>
			<path d="M620.096,1399.755c1.619-2.274,2.43-5.101,2.43-8.481c0-3.218-0.734-6.004-2.201-8.359
				c-1.467-2.356-3.406-4.039-5.816-5.055c-2.41-1.014-6.458-1.52-12.139-1.52h-10.375v51.445h9.793v-21.789h0.895l11.569,21.789
				h10.705l-12.187-22.872C616.034,1403.748,618.475,1402.026,620.096,1399.755z M611.287,1395.221
				c-1.174,0.819-3.317,1.228-6.431,1.228h-3.068v-10.561h2.684c2.603,0,4.394,0.181,5.37,0.544c0.976,0.363,1.754,0.96,2.336,1.789
				c0.58,0.831,0.87,1.807,0.87,2.93C613.048,1393.046,612.461,1394.403,611.287,1395.221z"/>
			<path d="M681.682,1399.755c1.621-2.274,2.43-5.101,2.43-8.481c0-3.218-0.734-6.004-2.201-8.359
				c-1.467-2.356-3.406-4.039-5.816-5.055c-2.411-1.014-6.456-1.52-12.139-1.52h-10.373v51.445h9.792v-21.789h0.897l11.569,21.789
				h10.705l-12.187-22.872C677.619,1403.748,680.061,1402.026,681.682,1399.755z M672.874,1395.221
				c-1.174,0.819-3.319,1.228-6.433,1.228h-3.068v-10.561h2.686c2.603,0,4.392,0.181,5.368,0.544
				c0.976,0.363,1.754,0.96,2.336,1.789c0.58,0.831,0.872,1.807,0.872,2.93C674.635,1393.046,674.048,1394.403,672.874,1395.221z"/>
			<path d="M710.159,1376.341l-19.838,51.445h10.177l4.184-10.598h20.992l4.024,10.598h10.177l-19.786-51.445H710.159z
				 M708.284,1407.64l6.901-17.66l6.862,17.66H708.284z"/>
			<path d="M775.751,1379.12c-3.634-1.853-9.19-2.779-16.666-2.779h-11.602v51.445h11.776c6.662,0,11.345-0.42,14.047-1.26
				c2.702-0.839,5.212-2.354,7.53-4.547c2.318-2.191,4.135-4.948,5.452-8.27c1.316-3.324,1.973-6.966,1.973-10.929
				c0-5.573-1.175-10.446-3.528-14.619C782.378,1383.987,779.386,1380.973,775.751,1379.12z M776.44,1411.515
				c-1.281,2.428-2.931,4.155-4.948,5.182c-2.018,1.027-5.264,1.542-9.74,1.542h-4.547v-32.456h3.324
				c6.085,0,10.502,1.354,13.254,4.061c3.055,3.012,4.582,7.247,4.582,12.709C778.364,1406.1,777.723,1409.088,776.44,1411.515z"/>
			<rect x="796.9" y="1376.341" width="9.722" height="51.445"/>
			<path d="M841.928,1375.046c-4.807,0-9.292,1.207-13.456,3.619c-4.165,2.414-7.437,5.683-9.816,9.811
				c-2.379,4.127-3.569,8.649-3.569,13.569c0,7.345,2.555,13.687,7.664,19.025c5.109,5.338,11.524,8.009,19.247,8.009
				c7.373,0,13.643-2.6,18.81-7.8c5.169-5.198,7.752-11.552,7.752-19.06c0-7.577-2.618-14.001-7.856-19.27
				C855.465,1377.681,849.207,1375.046,841.928,1375.046z M853.866,1414.564c-3.268,3.358-7.224,5.037-11.869,5.037
				c-4.107,0-7.749-1.294-10.922-3.882c-4.084-3.311-6.126-7.81-6.126-13.499c0-5.106,1.622-9.313,4.867-12.625
				c3.243-3.311,7.246-4.966,12.007-4.966c4.715,0,8.716,1.697,12.007,5.089c3.291,3.391,4.938,7.536,4.938,12.433
				C858.767,1407.07,857.133,1411.208,853.866,1414.564z"/>
			<path d="M922.542,1384.523c5.823,0,11.064,2.463,15.723,7.387l6.849-6.529c-2.844-3.306-6.23-5.854-10.159-7.646
				c-3.929-1.794-8.014-2.689-12.258-2.689c-4.99,0-9.648,1.212-13.972,3.637c-4.324,2.425-7.647,5.63-9.966,9.617
				c-2.321,3.988-3.48,8.547-3.48,13.676c0,7.926,2.547,14.425,7.642,19.497c5.094,5.071,11.639,7.607,19.637,7.607
				c4.336,0,8.195-0.719,11.575-2.151c3.381-1.434,6.972-4.006,10.773-7.716l-6.639-6.928c-2.819,2.801-5.404,4.732-7.757,5.793
				c-2.353,1.063-4.951,1.592-7.792,1.592c-3.332,0-6.361-0.758-9.086-2.275c-2.725-1.517-4.834-3.606-6.324-6.267
				c-1.49-2.659-2.236-5.706-2.236-9.137c0-4.925,1.681-9.066,5.048-12.428C913.486,1386.204,917.626,1384.523,922.542,1384.523z"/>
			<polygon points="963.475,1376.341 953.684,1376.341 953.684,1427.785 977.745,1427.785 977.745,1418.447 963.475,1418.447 			"/>
			<path d="M1009.849,1408.384c0,3.449-0.239,5.784-0.717,7.007c-0.478,1.223-1.341,2.231-2.589,3.022
				c-1.246,0.793-2.733,1.189-4.458,1.189c-1.632,0-3.025-0.354-4.179-1.065c-1.154-0.711-1.982-1.66-2.483-2.849
				c-0.503-1.187-0.752-3.215-0.752-6.08v-33.266h-9.828v30.67c0,6.133,0.594,10.487,1.784,13.062
				c1.189,2.577,3.164,4.722,5.927,6.435c2.763,1.714,6.01,2.572,9.74,2.572c2.844,0,5.338-0.45,7.485-1.347
				c2.145-0.897,4.039-2.278,5.683-4.145c1.644-1.865,2.757-3.8,3.34-5.805c0.582-2.005,0.874-5.595,0.874-10.772v-30.67h-9.827
				V1408.384z"/>
			<path d="M1061.084,1404.964c-1.446-2.203-3.731-4.039-6.855-5.508c1.865-1.398,3.212-2.897,4.039-4.494
				c0.828-1.596,1.241-3.375,1.241-5.332c0-3.009-0.91-5.619-2.73-7.834c-1.822-2.216-4.273-3.731-7.355-4.547
				c-2.171-0.605-5.602-0.908-10.294-0.908h-8.088v51.445h14.424c4.155,0,7.411-0.589,9.768-1.766
				c2.358-1.177,4.283-2.956,5.777-5.333c1.494-2.379,2.24-5.014,2.24-7.905C1063.252,1409.774,1062.53,1407.169,1061.084,1404.964z
				 M1040.835,1385.677h2.528c2.245,0,3.919,0.473,5.02,1.418c1.099,0.943,1.65,2.221,1.65,3.828c0,1.726-0.58,3.09-1.738,4.092
				c-1.159,1.004-2.933,1.504-5.318,1.504h-2.142V1385.677z M1051.512,1416.909c-1.413,1.026-4.155,1.538-8.224,1.538h-2.453
				v-13.184h2.033c3.858,0,6.616,0.641,8.276,1.922c1.66,1.283,2.491,3.032,2.491,5.246
				C1053.635,1414.39,1052.927,1415.882,1051.512,1416.909z"/>
		</g>
		<g>
			<path d="M51.22,882.175h17.706v62.158H57.178v-51.045H44.374L51.22,882.175z"/>
			<path d="M108.814,945.897l-10.054-4.992l10.891-21.165c-5.278,0-9.765-1.884-13.462-5.655c-3.697-3.771-5.546-8.458-5.546-14.057
				c0-5.43,1.894-10.024,5.684-13.781c3.788-3.757,8.359-5.635,13.712-5.635c5.605,0,10.275,1.948,14.008,5.844
				c3.732,3.896,5.598,8.378,5.598,13.442c0,1.914-0.289,3.835-0.866,5.761c-0.578,1.928-1.909,4.902-3.994,8.926L108.814,945.897z
				 M110.293,908.541c2.197,0,4.043-0.801,5.536-2.402c1.493-1.602,2.24-3.582,2.24-5.942c0-2.416-0.782-4.44-2.346-6.07
				c-1.564-1.629-3.387-2.444-5.472-2.444c-2.197,0-4.085,0.807-5.662,2.422c-1.578,1.617-2.366,3.633-2.366,6.05
				c0,2.388,0.767,4.382,2.303,5.984C106.06,907.74,107.983,908.541,110.293,908.541z"/>
			<path d="M148.154,882.175h17.706v62.158h-11.748v-51.045h-12.803L148.154,882.175z"/>
			<path d="M207.482,880.611l10.078,5.04l-10.881,21.117c5.267,0,9.747,1.886,13.437,5.661c3.69,3.775,5.536,8.466,5.536,14.071
				c0,5.408-1.895,9.994-5.683,13.755c-3.79,3.761-8.36,5.641-13.712,5.641c-5.606,0-10.276-1.95-14.009-5.852
				c-3.733-3.902-5.598-8.374-5.598-13.416c0-1.916,0.289-3.847,0.867-5.791c0.577-1.942,1.908-4.928,3.993-8.958L207.482,880.611z
				 M206.003,917.965c-2.197,0-4.043,0.797-5.536,2.386c-1.493,1.594-2.239,3.586-2.239,5.98s0.782,4.41,2.345,6.044
				c1.564,1.633,3.387,2.45,5.472,2.45c2.198,0,4.085-0.803,5.662-2.408s2.366-3.635,2.366-6.086c0-2.394-0.768-4.386-2.303-5.98
				C210.235,918.762,208.313,917.965,206.003,917.965z"/>
			<rect x="41.691" y="848.84" width="183.961" height="8.82"/>
			<rect x="41.691" y="968.011" width="183.961" height="8.82"/>
		</g>
		<g>
			<path d="M888.525,902.205H876.99c0.31-6.705,2.415-11.98,6.317-15.826c3.901-3.845,8.909-5.767,15.023-5.767
				c3.775,0,7.105,0.797,9.993,2.386c2.887,1.592,5.198,3.888,6.93,6.888c1.733,3,2.599,6.05,2.599,9.149
				c0,3.689-1.05,7.661-3.149,11.916c-2.1,4.253-5.94,9.281-11.521,15.085l-6.975,7.352h22.153v10.944h-43.059v-5.663l19.226-19.607
				c4.648-4.703,7.74-8.486,9.276-11.344c1.535-2.859,2.303-5.444,2.303-7.755c0-2.394-0.796-4.372-2.387-5.936
				s-3.641-2.345-6.148-2.345c-2.535,0-4.648,0.944-6.339,2.831S888.638,898.964,888.525,902.205z"/>
			<path d="M945.95,880.611c4.536,0,8.444,1.114,11.726,3.339s5.818,5.627,7.606,10.203c1.789,4.58,2.683,10.952,2.683,19.121
				c0,8.255-0.908,14.677-2.725,19.268c-1.818,4.594-4.262,7.966-7.331,10.121c-3.071,2.155-6.945,3.233-11.62,3.233
				c-4.677,0-8.606-1.086-11.79-3.255c-3.184-2.169-5.677-5.464-7.479-9.888c-1.804-4.422-2.705-10.717-2.705-18.888
				c0-11.408,1.761-19.677,5.282-24.804C933.512,883.428,938.963,880.611,945.95,880.611z M946.225,891.85
				c-1.997,0-3.768,0.641-5.314,1.924c-1.547,1.281-2.727,3.486-3.542,6.611c-0.816,3.127-1.223,7.705-1.223,13.735
				c0,7.858,0.934,13.289,2.805,16.288c1.868,3,4.294,4.5,7.274,4.5c2.866,0,5.144-1.422,6.831-4.267
				c2.053-3.436,3.079-9.183,3.079-17.241c0-8.169-0.921-13.802-2.762-16.902C951.531,893.4,949.148,891.85,946.225,891.85z"/>
			<path d="M985.459,902.205h-11.536c0.31-6.705,2.415-11.98,6.317-15.826c3.901-3.845,8.909-5.767,15.023-5.767
				c3.775,0,7.105,0.797,9.993,2.386c2.887,1.592,5.198,3.888,6.93,6.888c1.733,3,2.599,6.05,2.599,9.149
				c0,3.689-1.05,7.661-3.149,11.916c-2.1,4.253-5.94,9.281-11.521,15.085l-6.975,7.352h22.153v10.944h-43.059v-5.663l19.226-19.607
				c4.648-4.703,7.74-8.486,9.276-11.344c1.535-2.859,2.303-5.444,2.303-7.755c0-2.394-0.796-4.372-2.387-5.936
				c-1.592-1.564-3.641-2.345-6.148-2.345c-2.535,0-4.648,0.944-6.339,2.831S985.572,898.964,985.459,902.205z"/>
			<path d="M1033.294,882.175h29.114v10.944h-20.282l-2.536,11.283c0.704-0.197,1.394-0.345,2.071-0.444s1.324-0.147,1.943-0.147
				c5.634,0,10.317,1.922,14.05,5.767c3.732,3.846,5.599,8.769,5.599,14.769c0,6.058-2.064,11.163-6.19,15.318
				c-4.127,4.155-9.148,6.233-15.064,6.233c-5.297,0-9.845-1.508-13.648-4.522c-3.804-3.014-6.297-7.141-7.48-12.382h12.424
				c0.957,1.944,2.218,3.416,3.782,4.416c1.563,1,3.289,1.5,5.176,1.5c2.619,0,4.844-0.942,6.676-2.831
				c1.831-1.886,2.747-4.311,2.747-7.269c0-2.872-0.853-5.231-2.557-7.078c-1.705-1.845-3.768-2.767-6.19-2.767
				c-1.297,0-2.572,0.325-3.825,0.972c-1.254,0.647-2.486,1.619-3.697,2.914l-9.634-2.153L1033.294,882.175z"/>
			<rect x="876.99" y="848.84" width="186.262" height="8.82"/>
			<rect x="876.99" y="968.011" width="186.262" height="8.82"/>
		</g>
	</g>
	<g>
		<g>
			<path style="fill:#C16435;" d="M-382.928,1327.607c-26.461-17.185-46.349-77.607-69.263-101.927
				c63.415-16.806,75.512-100.585,3.789-116.911c-37.228-8.474-82.521-1.844-121.335-3.982c-6.625-0.365-13.428,0.469-20.041,0.157
				l0.017,9.105c8.987,1.273,25.636,3.53,27.515,13.808v189.567c-1.878,10.276-18.528,12.541-27.516,13.806l0.001,9.12h94.76
				c5.662-14.072-21.397-9.765-21.397-22.93v-84.079c4.28,0.06,8.953-0.733,13.108,0.644c17.963,5.954,45.975,86.695,69.549,101.654
				c20.225,12.834,47.997,6.736,70.182,4.697C-362.21,1331.928-375.712,1332.293-382.928,1327.607z M-516.399,1218.054v-97.837
				c38.628-3.721,64.294,4.047,64.366,47.398C-451.958,1212.247-475.183,1221.862-516.399,1218.054z"/>
			<path style="fill:#C16435;" d="M-663.832,1318.127l-75.363-211.383l-19.015,0.077l-84.102,205.645
				c-5.438,13.495-18.138,17.499-31.73,18.764l0.001,9.12h73.362l-1.819-9.438l-19.828-7.775l18.247-57.407
				c2.153-3.08,68.221-3.62,72.224,1.196c4.131,25.108,36.599,62.616-7.691,64.286l3.059,9.138h100.873l0.001-9.12
				C-645.755,1329.962-658.568,1327.797-663.832,1318.127z M-794.565,1248.628c0.891-6.805,25.667-80.235,30.531-76.428
				l24.491,76.428H-794.565z"/>
			<path style="fill:#C16435;" d="M-923.658,1318.127l-75.362-211.383l-19.015,0.077l-85.668,210.194
				c-6.266,9.898-19.135,13.037-30.165,14.215l0.001,9.119h73.363l-1.819-9.438l-19.828-7.775l18.247-57.407
				c2.153-3.08,68.221-3.62,72.225,1.196c4.131,25.108,36.599,62.616-7.691,64.286l3.059,9.138h100.873l0.001-9.12
				C-905.58,1329.962-918.393,1327.797-923.658,1318.127z M-1054.391,1248.628c0.891-6.805,25.667-80.235,30.531-76.428
				l24.491,76.428H-1054.391z"/>
			<path style="fill:#C16435;" d="M-126.365,1316.154c-21.622,3.046-37.233,8.873-61.164,5.584
				c-94.663-13.007-93.506-195.732-9.171-207.37c9.211-1.271,32.115-1.561,40.309,1.765c8.54,3.467,11.394,40.014,16.154,49.824
				l8.978,0.144l9.202-61.162c-51.54-8.188-105.941-10.636-149.537,23.186c-49.044,38.05-53.729,124.7-16.812,172.213
				c38.301,49.294,119.808,55.492,169.36,20.096C-117.795,1313.965-121.809,1315.512-126.365,1316.154z"/>
		</g>
		<path style="fill:#FFFFFF;" d="M-400.584,1025.461l0.827-23.775l16.105-9.307l-16.85-23.839l-0.044-106.771l22.01-23.783
			c-12.961-15.553-28.551-28.563-45.828-39.379l-0.725-104.092c-0.037-0.676-0.11-1.333-0.213-1.976v-18.783
			c0-9.35-6.63-17.15-15.444-18.959v-13.061c0-9.955-7.519-18.147-17.187-19.226c-0.226-2.391-0.48-4.574-0.821-6.305
			c-13.394-67.894-45.274-131.743-101.153-173.646v-23.493h-39.148l-0.008-17.155h20.74V383.6h-20.732v-83.471
			c0.086-0.086,0.135-0.135,0.222-0.222h23.746v-17.646h-30.407v-35.293l-14.007-18.216h-0.556v-43.027
			c0.202-0.202,0.318-0.318,0.52-0.52h6.026v-26.153h-6.546v-41.325l26.571-10.823l30.533,25.415l4.327-5.199l-27.762-23.108
			l55.622-22.656l35.108,29.223l4.327-5.199l-74.005-61.6l-4.327,5.199l32.263,26.855l-55.622,22.656l-39.609-32.97l-4.327,5.199
			l36.838,30.663l-58.777,23.941l-42.975-35.771l-4.327,5.199l40.203,33.464l-56.829,23.148l-40.406-33.633l-4.327,5.199
			l74.005,61.6l4.327-5.199l-26.964-22.444l56.829-23.148l17.815,14.829v3.717v6.768h-8.111v26.153h8.111v43.83l-14.088,17.933
			v35.293h-31.593v17.646h23.712V383.6h-18.904v18.314h18.912l-0.008,17.155h-37.32v24.793h0.572
			c-68.426,43.326-95.567,110.307-95.567,110.307v58.329h-4.053c-7.13,0-12.91,5.78-12.91,12.91v16.045h-4.053
			c-7.13,0-12.91,5.78-12.91,12.91v22.896c-0.082,0.326-0.168,0.65-0.271,0.959c-0.72,2.163-6.513,4.778-8.965,8
			c-5.267,6.919-7.091,17.481-5.786,26.002c1.317,4.468,6.985-1.699,8.241,5.297c-1.36,20.906,1.805,43.907,0.055,64.529
			c-1.51,17.795-7.862,14.811-18.126,25.136c-5.06,5.09-27.542,30.567-27.817,35.829l20.408,22.145l0.058,111.973l-17.007,15.246
			l15.284,8.484v24.602h-44.105v0.421h-5.809v38.708h238.009v-38.708h-0.244c-5.581-5.12-26.708-18.228-26.708-18.228l1.597-174.874
			c65.74-5.681,135.935-8.298,200.62,6.549c11.012,2.528,24.494,5.591,33.582,12.222v213.039h110.262v-38.708v-0.421H-400.584z
			 M-734.318,535.552l13.125-6.513v37.653c-4.601,0.971-9.144,2.251-13.571,3.759L-734.318,535.552z M-761.905,552.935l18.66-11.028
			c0.448,10.394-0.614,20.997,0,31.389c0.005,0.083,0.077,0.182,0.172,0.288c-6.752,2.779-13.104,5.95-18.831,9.142V552.935z
			 M-761.905,697.783l27.141-6.323v63.194l-27.141,7.306V697.783z M-787.35,568.205l18.66-11.029v29.498
			c-8.685,5.28-15.281,10.129-18.66,12.735V568.205z M-795.831,705.687l27.142-6.323v64.423l-27.142,7.306V705.687z
			 M-829.758,713.591l27.141-6.323v65.652l-27.141,7.306V713.591z M-826.365,965.517l-23.749,5.703v-99.929l23.749-5.612V965.517z
			 M-787.35,956.147l-27.141,6.518v-99.793l27.141-6.414V956.147z M-750.03,947.185l-25.445,6.111v-99.643l25.445-6.013V947.185z
			 M-714.869,938.74l-23.287,5.593v-99.5l23.714-5.604L-714.869,938.74z M-709.714,747.912l-18.263,4.916v-62.949l18.263-4.255
			V747.912z M-702.219,564.745c-3.83-0.062-7.675,0.159-11.505,0.655l-0.682-0.589l-1.003-39.428l13.191-5.772V564.745z
			 M-641.548,126.481v7.91v5.375l-10.716-8.92L-641.548,126.481z M-466.75,781.133c-81.583-37.386-198.848-32.662-234.086-28.838
			V570.451h8.863v-54.99c0,0-0.095-48.623,25.074-71.103l90.38-0.495c52.941,36.483,89.009,95.907,102.776,158.492
			C-460.949,660.519-468.98,721.889-466.75,781.133z"/>
		<g>
			<path style="fill:#FFFFFF;" d="M-1117.853,1376.341l-19.838,51.445h10.177l4.184-10.598h20.992l4.025,10.598h10.177
				l-19.786-51.445H-1117.853z M-1119.728,1407.64l6.901-17.66l6.862,17.66H-1119.728z"/>
			<path style="fill:#FFFFFF;" d="M-1055.908,1408.384c0,3.449-0.239,5.784-0.717,7.007s-1.34,2.231-2.588,3.022
				c-1.246,0.793-2.734,1.189-4.458,1.189c-1.632,0-3.025-0.354-4.179-1.065c-1.154-0.711-1.982-1.66-2.483-2.849
				c-0.503-1.187-0.752-3.215-0.752-6.08v-33.266h-9.828v30.67c0,6.133,0.594,10.487,1.784,13.062
				c1.189,2.577,3.164,4.722,5.927,6.435c2.763,1.714,6.009,2.572,9.74,2.572c2.844,0,5.338-0.45,7.485-1.347
				c2.145-0.897,4.039-2.278,5.683-4.145c1.644-1.865,2.757-3.8,3.34-5.805c0.582-2.005,0.874-5.595,0.874-10.772v-30.67h-9.828
				V1408.384z"/>
			<path style="fill:#FFFFFF;" d="M-1012.271,1402.744c-0.795-0.816-3.06-2.785-6.797-5.91c-3.993-3.38-6.387-5.582-7.18-6.609
				c-0.585-0.77-0.877-1.584-0.877-2.448c0-0.862,0.409-1.637,1.226-2.325c0.818-0.688,1.868-1.032,3.152-1.032
				c2.639,0,5.233,1.773,7.778,5.315l7.252-6.4c-2.707-3.147-5.223-5.315-7.546-6.504c-2.321-1.19-4.768-1.784-7.335-1.784
				c-3.991,0-7.348,1.276-10.067,3.83c-2.72,2.552-4.079,5.612-4.079,9.18c0,2.471,0.816,4.949,2.451,7.432
				c1.635,2.483,5.254,6.009,10.86,10.579c2.943,2.401,4.847,4.184,5.711,5.35s1.296,2.331,1.296,3.497
				c0,1.283-0.572,2.414-1.716,3.393c-1.144,0.979-2.557,1.469-4.237,1.469c-3.223,0-6.072-2.274-8.547-6.819l-8.232,4.966
				c1.937,3.846,4.265,6.667,6.985,8.463c2.719,1.795,5.91,2.694,9.575,2.694c4.69,0,8.496-1.376,11.412-4.126
				c2.918-2.752,4.377-6.237,4.377-10.458c0-2.168-0.415-4.168-1.245-5.998C-1008.88,1406.668-1010.286,1404.75-1012.271,1402.744z"
				/>
			<polygon style="fill:#FFFFFF;" points="-1002.539,1385.991 -993.412,1385.991 -993.412,1427.785 -983.479,1427.785 
				-983.479,1385.991 -974.107,1385.991 -974.107,1376.341 -1002.539,1376.341 			"/>
			<rect x="-968.092" y="1376.341" style="fill:#FFFFFF;" width="9.722" height="51.445"/>
			<polygon style="fill:#FFFFFF;" points="-915.912,1410.194 -937.925,1376.341 -947.318,1376.341 -947.318,1427.785 
				-937.526,1427.785 -937.526,1394.035 -915.54,1427.785 -906.121,1427.785 -906.121,1376.341 -915.912,1376.341 			"/>
			<path style="fill:#FFFFFF;" d="M-858.635,1376.341l-19.84,51.445h10.177l4.186-10.598h20.991l4.026,10.598h10.177l-19.787-51.445
				H-858.635z M-860.511,1407.64l6.903-17.66l6.86,17.66H-860.511z"/>
			<polygon style="fill:#FFFFFF;" points="-782.856,1376.341 -794.889,1412.222 -806.816,1376.341 -816.356,1376.341 
				-825.262,1427.785 -815.715,1427.785 -810.067,1395.295 -799.235,1427.785 -790.604,1427.785 -779.675,1395.295 
				-774.159,1427.785 -764.691,1427.785 -773.32,1376.341 			"/>
			<path style="fill:#FFFFFF;" d="M-741.196,1376.341l-19.84,51.445h10.177l4.186-10.598h20.991l4.026,10.598h10.177l-19.787-51.445
				H-741.196z M-743.072,1407.64l6.903-17.66l6.86,17.66H-743.072z"/>
			<polygon style="fill:#FFFFFF;" points="-708.979,1385.991 -699.851,1385.991 -699.851,1427.785 -689.919,1427.785 
				-689.919,1385.991 -680.547,1385.991 -680.547,1376.341 -708.979,1376.341 			"/>
			<polygon style="fill:#FFFFFF;" points="-673.795,1427.785 -645.712,1427.785 -645.712,1418.167 -664.073,1418.167 
				-664.073,1404.633 -645.712,1404.633 -645.712,1395.226 -664.073,1395.226 -664.073,1385.922 -645.712,1385.922 
				-645.712,1376.341 -673.795,1376.341 			"/>
			<path style="fill:#FFFFFF;" d="M-611.929,1408.384c0,3.449-0.239,5.784-0.717,7.007c-0.478,1.223-1.34,2.231-2.589,3.022
				c-1.246,0.793-2.734,1.189-4.458,1.189c-1.632,0-3.025-0.354-4.179-1.065c-1.154-0.711-1.982-1.66-2.483-2.849
				c-0.503-1.187-0.752-3.215-0.752-6.08v-33.266h-9.828v30.67c0,6.133,0.594,10.487,1.784,13.062
				c1.189,2.577,3.164,4.722,5.927,6.435c2.763,1.714,6.009,2.572,9.74,2.572c2.844,0,5.338-0.45,7.485-1.347
				c2.145-0.897,4.039-2.278,5.683-4.145c1.644-1.865,2.757-3.8,3.34-5.805c0.582-2.005,0.874-5.595,0.874-10.772v-30.67h-9.828
				V1408.384z"/>
			<path style="fill:#FFFFFF;" d="M-561.97,1399.755c1.619-2.274,2.43-5.101,2.43-8.481c0-3.218-0.734-6.004-2.201-8.359
				c-1.467-2.356-3.406-4.039-5.816-5.055c-2.411-1.014-6.458-1.52-12.139-1.52h-10.375v51.445h9.793v-21.789h0.895l11.569,21.789
				h10.705l-12.187-22.872C-566.032,1403.748-563.591,1402.026-561.97,1399.755z M-570.779,1395.221
				c-1.174,0.819-3.317,1.228-6.431,1.228h-3.068v-10.561h2.684c2.603,0,4.394,0.181,5.37,0.544c0.976,0.363,1.754,0.96,2.336,1.789
				c0.58,0.831,0.87,1.807,0.87,2.93C-569.018,1393.046-569.605,1394.403-570.779,1395.221z"/>
			<path style="fill:#FFFFFF;" d="M-500.384,1399.755c1.621-2.274,2.43-5.101,2.43-8.481c0-3.218-0.734-6.004-2.201-8.359
				c-1.467-2.356-3.406-4.039-5.816-5.055c-2.41-1.014-6.456-1.52-12.139-1.52h-10.373v51.445h9.792v-21.789h0.897l11.569,21.789
				h10.705l-12.187-22.872C-504.447,1403.748-502.005,1402.026-500.384,1399.755z M-509.191,1395.221
				c-1.174,0.819-3.319,1.228-6.433,1.228h-3.068v-10.561h2.686c2.603,0,4.392,0.181,5.368,0.544
				c0.976,0.363,1.754,0.96,2.336,1.789c0.58,0.831,0.872,1.807,0.872,2.93C-507.431,1393.046-508.018,1394.403-509.191,1395.221z"
				/>
			<path style="fill:#FFFFFF;" d="M-471.907,1376.341l-19.838,51.445h10.177l4.184-10.598h20.992l4.024,10.598h10.177
				l-19.786-51.445H-471.907z M-473.782,1407.64l6.901-17.66l6.862,17.66H-473.782z"/>
			<path style="fill:#FFFFFF;" d="M-406.315,1379.12c-3.634-1.853-9.19-2.779-16.666-2.779h-11.602v51.445h11.776
				c6.662,0,11.345-0.42,14.047-1.26c2.702-0.839,5.212-2.354,7.53-4.547c2.318-2.191,4.135-4.948,5.452-8.27
				c1.316-3.324,1.973-6.966,1.973-10.929c0-5.573-1.175-10.446-3.528-14.619C-399.688,1383.987-402.68,1380.973-406.315,1379.12z
				 M-405.626,1411.515c-1.281,2.428-2.931,4.155-4.948,5.182c-2.018,1.027-5.264,1.542-9.74,1.542h-4.547v-32.456h3.324
				c6.085,0,10.502,1.354,13.254,4.061c3.055,3.012,4.582,7.247,4.582,12.709C-403.702,1406.1-404.343,1409.088-405.626,1411.515z"
				/>
			<rect x="-385.166" y="1376.341" style="fill:#FFFFFF;" width="9.722" height="51.445"/>
			<path style="fill:#FFFFFF;" d="M-340.138,1375.046c-4.807,0-9.292,1.207-13.456,3.619c-4.165,2.414-7.437,5.683-9.816,9.811
				c-2.379,4.127-3.569,8.649-3.569,13.569c0,7.345,2.555,13.687,7.664,19.025c5.109,5.338,11.524,8.009,19.246,8.009
				c7.373,0,13.643-2.6,18.81-7.8c5.168-5.198,7.752-11.552,7.752-19.06c0-7.577-2.618-14.001-7.856-19.27
				C-326.601,1377.681-332.859,1375.046-340.138,1375.046z M-328.2,1414.564c-3.268,3.358-7.224,5.037-11.869,5.037
				c-4.107,0-7.749-1.294-10.922-3.882c-4.084-3.311-6.126-7.81-6.126-13.499c0-5.106,1.622-9.313,4.867-12.625
				c3.243-3.311,7.246-4.966,12.007-4.966c4.715,0,8.716,1.697,12.007,5.089c3.291,3.391,4.938,7.536,4.938,12.433
				C-323.299,1407.07-324.933,1411.208-328.2,1414.564z"/>
			<path style="fill:#FFFFFF;" d="M-259.523,1384.523c5.823,0,11.064,2.463,15.723,7.387l6.849-6.529
				c-2.844-3.306-6.23-5.854-10.159-7.646c-3.929-1.794-8.014-2.689-12.258-2.689c-4.99,0-9.648,1.212-13.972,3.637
				c-4.324,2.425-7.647,5.63-9.966,9.617c-2.321,3.988-3.48,8.547-3.48,13.676c0,7.926,2.547,14.425,7.642,19.497
				c5.094,5.071,11.639,7.607,19.637,7.607c4.336,0,8.195-0.719,11.575-2.151c3.381-1.434,6.972-4.006,10.772-7.716l-6.639-6.928
				c-2.819,2.801-5.404,4.732-7.757,5.793c-2.353,1.063-4.951,1.592-7.792,1.592c-3.332,0-6.361-0.758-9.086-2.275
				c-2.725-1.517-4.834-3.606-6.324-6.267c-1.49-2.659-2.236-5.706-2.236-9.137c0-4.925,1.681-9.066,5.048-12.428
				C-268.58,1386.204-264.44,1384.523-259.523,1384.523z"/>
			<polygon style="fill:#FFFFFF;" points="-218.591,1376.341 -228.382,1376.341 -228.382,1427.785 -204.321,1427.785 
				-204.321,1418.447 -218.591,1418.447 			"/>
			<path style="fill:#FFFFFF;" d="M-172.217,1408.384c0,3.449-0.239,5.784-0.717,7.007c-0.478,1.223-1.341,2.231-2.589,3.022
				c-1.246,0.793-2.733,1.189-4.458,1.189c-1.632,0-3.025-0.354-4.179-1.065c-1.154-0.711-1.982-1.66-2.483-2.849
				c-0.503-1.187-0.752-3.215-0.752-6.08v-33.266h-9.828v30.67c0,6.133,0.594,10.487,1.784,13.062
				c1.189,2.577,3.164,4.722,5.927,6.435c2.763,1.714,6.01,2.572,9.74,2.572c2.844,0,5.338-0.45,7.485-1.347
				c2.145-0.897,4.039-2.278,5.683-4.145c1.644-1.865,2.757-3.8,3.34-5.805c0.582-2.005,0.874-5.595,0.874-10.772v-30.67h-9.828
				V1408.384z"/>
			<path style="fill:#FFFFFF;" d="M-120.982,1404.964c-1.446-2.203-3.731-4.039-6.855-5.508c1.865-1.398,3.212-2.897,4.039-4.494
				c0.828-1.596,1.241-3.375,1.241-5.332c0-3.009-0.91-5.619-2.73-7.834c-1.822-2.216-4.273-3.731-7.355-4.547
				c-2.171-0.605-5.602-0.908-10.294-0.908h-8.088v51.445h14.424c4.155,0,7.411-0.589,9.768-1.766
				c2.358-1.177,4.283-2.956,5.777-5.333c1.494-2.379,2.24-5.014,2.24-7.905C-118.814,1409.774-119.536,1407.169-120.982,1404.964z
				 M-141.231,1385.677h2.528c2.245,0,3.919,0.473,5.02,1.418c1.1,0.943,1.65,2.221,1.65,3.828c0,1.726-0.58,3.09-1.738,4.092
				c-1.159,1.004-2.933,1.504-5.318,1.504h-2.142V1385.677z M-130.554,1416.909c-1.413,1.026-4.155,1.538-8.223,1.538h-2.453
				v-13.184h2.033c3.858,0,6.616,0.641,8.276,1.922c1.66,1.283,2.491,3.032,2.491,5.246
				C-128.431,1414.39-129.139,1415.882-130.554,1416.909z"/>
		</g>
		<g>
			<path style="fill:#FFFFFF;" d="M-1130.846,882.175h17.706v62.158h-11.748v-51.045h-12.803L-1130.846,882.175z"/>
			<path style="fill:#FFFFFF;" d="M-1073.252,945.897l-10.054-4.992l10.891-21.165c-5.278,0-9.765-1.884-13.462-5.655
				c-3.697-3.771-5.546-8.458-5.546-14.057c0-5.43,1.894-10.024,5.684-13.781c3.788-3.757,8.359-5.635,13.712-5.635
				c5.605,0,10.275,1.948,14.008,5.844c3.732,3.896,5.599,8.378,5.599,13.442c0,1.914-0.289,3.835-0.865,5.761
				c-0.578,1.928-1.909,4.902-3.994,8.926L-1073.252,945.897z M-1071.773,908.541c2.197,0,4.043-0.801,5.536-2.402
				c1.493-1.602,2.24-3.582,2.24-5.942c0-2.416-0.782-4.44-2.346-6.07s-3.387-2.444-5.472-2.444c-2.197,0-4.084,0.807-5.662,2.422
				c-1.578,1.617-2.367,3.633-2.367,6.05c0,2.388,0.767,4.382,2.303,5.984C-1076.006,907.74-1074.083,908.541-1071.773,908.541z"/>
			<path style="fill:#FFFFFF;" d="M-1033.912,882.175h17.706v62.158h-11.748v-51.045h-12.803L-1033.912,882.175z"/>
			<path style="fill:#FFFFFF;" d="M-974.584,880.611l10.078,5.04l-10.881,21.117c5.267,0,9.747,1.886,13.437,5.661
				c3.69,3.775,5.536,8.466,5.536,14.071c0,5.408-1.895,9.994-5.683,13.755c-3.79,3.761-8.36,5.641-13.712,5.641
				c-5.606,0-10.276-1.95-14.009-5.852c-3.733-3.902-5.598-8.374-5.598-13.416c0-1.916,0.289-3.847,0.867-5.791
				c0.577-1.942,1.908-4.928,3.993-8.958L-974.584,880.611z M-976.063,917.965c-2.197,0-4.043,0.797-5.536,2.386
				c-1.493,1.594-2.239,3.586-2.239,5.98s0.782,4.41,2.345,6.044c1.564,1.633,3.387,2.45,5.472,2.45
				c2.198,0,4.085-0.803,5.662-2.408c1.578-1.606,2.366-3.635,2.366-6.086c0-2.394-0.768-4.386-2.303-5.98
				C-971.831,918.762-973.753,917.965-976.063,917.965z"/>
			<rect x="-1140.375" y="848.84" style="fill:#C16435;" width="183.961" height="8.82"/>
			<rect x="-1140.375" y="968.011" style="fill:#C16435;" width="183.961" height="8.82"/>
		</g>
		<g>
			<path style="fill:#FFFFFF;" d="M-293.541,902.205h-11.536c0.31-6.705,2.415-11.98,6.317-15.826
				c3.901-3.845,8.909-5.767,15.023-5.767c3.775,0,7.105,0.797,9.993,2.386c2.887,1.592,5.198,3.888,6.93,6.888
				c1.733,3,2.599,6.05,2.599,9.149c0,3.689-1.05,7.661-3.149,11.916c-2.1,4.253-5.94,9.281-11.521,15.085l-6.975,7.352h22.153
				v10.944h-43.059v-5.663l19.226-19.607c4.648-4.703,7.74-8.486,9.276-11.344c1.535-2.859,2.303-5.444,2.303-7.755
				c0-2.394-0.796-4.372-2.387-5.936c-1.592-1.564-3.641-2.345-6.148-2.345c-2.535,0-4.648,0.944-6.339,2.831
				S-293.428,898.964-293.541,902.205z"/>
			<path style="fill:#FFFFFF;" d="M-236.116,880.611c4.536,0,8.444,1.114,11.726,3.339c3.282,2.225,5.818,5.627,7.606,10.203
				c1.789,4.58,2.683,10.952,2.683,19.121c0,8.255-0.908,14.677-2.725,19.268c-1.818,4.594-4.262,7.966-7.331,10.121
				c-3.071,2.155-6.945,3.233-11.62,3.233c-4.677,0-8.606-1.086-11.79-3.255c-3.184-2.169-5.677-5.464-7.479-9.888
				c-1.804-4.422-2.705-10.717-2.705-18.888c0-11.408,1.761-19.677,5.282-24.804C-248.554,883.428-243.103,880.611-236.116,880.611z
				 M-235.841,891.85c-1.997,0-3.768,0.641-5.314,1.924c-1.547,1.281-2.727,3.486-3.542,6.611
				c-0.816,3.127-1.223,7.705-1.223,13.735c0,7.858,0.934,13.289,2.805,16.288c1.868,3,4.294,4.5,7.274,4.5
				c2.866,0,5.144-1.422,6.831-4.267c2.053-3.436,3.079-9.183,3.079-17.241c0-8.169-0.921-13.802-2.762-16.902
				C-230.535,893.4-232.918,891.85-235.841,891.85z"/>
			<path style="fill:#FFFFFF;" d="M-196.607,902.205h-11.536c0.31-6.705,2.415-11.98,6.317-15.826
				c3.901-3.845,8.909-5.767,15.023-5.767c3.775,0,7.105,0.797,9.993,2.386c2.887,1.592,5.198,3.888,6.93,6.888
				c1.733,3,2.599,6.05,2.599,9.149c0,3.689-1.05,7.661-3.149,11.916c-2.1,4.253-5.94,9.281-11.521,15.085l-6.975,7.352h22.153
				v10.944h-43.059v-5.663l19.226-19.607c4.648-4.703,7.74-8.486,9.276-11.344c1.535-2.859,2.303-5.444,2.303-7.755
				c0-2.394-0.796-4.372-2.387-5.936s-3.641-2.345-6.148-2.345c-2.535,0-4.648,0.944-6.339,2.831S-196.494,898.964-196.607,902.205z
				"/>
			<path style="fill:#FFFFFF;" d="M-148.772,882.175h29.114v10.944h-20.282l-2.536,11.283c0.704-0.197,1.394-0.345,2.071-0.444
				c0.676-0.1,1.324-0.147,1.943-0.147c5.634,0,10.317,1.922,14.05,5.767c3.732,3.846,5.598,8.769,5.598,14.769
				c0,6.058-2.064,11.163-6.19,15.318c-4.127,4.155-9.148,6.233-15.064,6.233c-5.297,0-9.845-1.508-13.648-4.522
				c-3.804-3.014-6.297-7.141-7.48-12.382h12.424c0.957,1.944,2.218,3.416,3.782,4.416c1.563,1,3.289,1.5,5.176,1.5
				c2.619,0,4.845-0.942,6.676-2.831c1.831-1.886,2.747-4.311,2.747-7.269c0-2.872-0.853-5.231-2.557-7.078
				c-1.705-1.845-3.768-2.767-6.19-2.767c-1.297,0-2.572,0.325-3.825,0.972c-1.254,0.647-2.486,1.619-3.697,2.914l-9.634-2.153
				L-148.772,882.175z"/>
			<rect x="-305.076" y="848.84" style="fill:#C16435;" width="186.262" height="8.82"/>
			<rect x="-305.076" y="968.011" style="fill:#C16435;" width="186.262" height="8.82"/>
		</g>
	</g>
	<g>
		<g>
			<path style="fill:#C16435;" d="M-1583.983,1327.607c-26.461-17.185-46.349-77.607-69.263-101.927
				c63.415-16.806,75.512-100.585,3.789-116.911c-37.228-8.474-82.521-1.844-121.335-3.982c-6.625-0.365-13.428,0.469-20.041,0.157
				l0.017,9.105c8.987,1.273,25.636,3.53,27.515,13.808v189.567c-1.878,10.276-18.528,12.541-27.516,13.806l0.001,9.12h94.76
				c5.662-14.072-21.397-9.765-21.397-22.93v-84.079c4.281,0.06,8.953-0.733,13.109,0.644
				c17.963,5.954,45.975,86.695,69.549,101.654c20.225,12.834,47.998,6.736,70.182,4.697
				C-1563.265,1331.928-1576.767,1332.293-1583.983,1327.607z M-1717.454,1218.054v-97.837c38.628-3.721,64.294,4.047,64.366,47.398
				C-1653.013,1212.247-1676.238,1221.862-1717.454,1218.054z"/>
			<path style="fill:#C16435;" d="M-1864.887,1318.127l-75.363-211.383l-19.015,0.077l-84.102,205.645
				c-5.437,13.495-18.138,17.499-31.73,18.764l0.001,9.12h73.362l-1.819-9.438l-19.828-7.775l18.247-57.407
				c2.153-3.08,68.221-3.62,72.224,1.196c4.131,25.108,36.599,62.616-7.691,64.286l3.059,9.138h100.873l0.001-9.12
				C-1846.81,1329.962-1859.623,1327.797-1864.887,1318.127z M-1995.62,1248.628c0.891-6.805,25.667-80.235,30.531-76.428
				l24.491,76.428H-1995.62z"/>
			<path style="fill:#C16435;" d="M-2124.713,1318.127l-75.362-211.383l-19.015,0.077l-85.668,210.194
				c-6.266,9.898-19.135,13.037-30.165,14.215l0.001,9.119h73.363l-1.82-9.438l-19.828-7.775l18.247-57.407
				c2.153-3.08,68.221-3.62,72.225,1.196c4.131,25.108,36.599,62.616-7.691,64.286l3.059,9.138h100.874l0.001-9.12
				C-2106.635,1329.962-2119.448,1327.797-2124.713,1318.127z M-2255.446,1248.628c0.891-6.805,25.667-80.235,30.531-76.428
				l24.491,76.428H-2255.446z"/>
			<path style="fill:#C16435;" d="M-1327.42,1316.154c-21.622,3.046-37.233,8.873-61.164,5.584
				c-94.663-13.007-93.506-195.732-9.171-207.37c9.211-1.271,32.115-1.561,40.309,1.765c8.54,3.467,11.394,40.014,16.154,49.824
				l8.978,0.144l9.202-61.162c-51.54-8.188-105.941-10.636-149.537,23.186c-49.044,38.05-53.729,124.7-16.812,172.213
				c38.301,49.294,119.807,55.492,169.36,20.096C-1318.849,1313.965-1322.864,1315.512-1327.42,1316.154z"/>
		</g>
		<path style="fill:#313164;" d="M-1601.639,1025.461l0.827-23.775l16.105-9.307l-16.85-23.839l-0.044-106.771l22.01-23.783
			c-12.961-15.553-28.552-28.563-45.828-39.379l-0.724-104.092c-0.037-0.676-0.11-1.333-0.213-1.976v-18.783
			c0-9.35-6.63-17.15-15.444-18.959v-13.061c0-9.955-7.519-18.147-17.187-19.226c-0.226-2.391-0.48-4.574-0.821-6.305
			c-13.394-67.894-45.274-131.743-101.153-173.646v-23.493h-39.148l-0.008-17.155h20.74V383.6h-20.732v-83.471
			c0.086-0.086,0.135-0.135,0.222-0.222h23.746v-17.646h-30.407v-35.293l-14.007-18.216h-0.556v-43.027
			c0.202-0.202,0.318-0.318,0.52-0.52h6.026v-26.153h-6.546v-41.325l26.571-10.823l30.533,25.415l4.327-5.199l-27.762-23.108
			l55.622-22.656l35.108,29.223l4.328-5.199l-74.005-61.6l-4.327,5.199l32.263,26.855l-55.622,22.656l-39.609-32.97l-4.328,5.199
			l36.838,30.663l-58.777,23.941l-42.975-35.771l-4.328,5.199l40.203,33.464l-56.829,23.148l-40.406-33.633l-4.328,5.199
			l74.005,61.6l4.327-5.199l-26.964-22.444l56.829-23.148l17.815,14.829v3.717v6.768h-8.111v26.153h8.111v43.83l-14.088,17.933
			v35.293h-31.593v17.646h23.712V383.6h-18.904v18.314h18.912l-0.008,17.155h-37.32v24.793h0.572
			c-68.426,43.326-95.567,110.307-95.567,110.307v58.329h-4.053c-7.13,0-12.91,5.78-12.91,12.91v16.045h-4.053
			c-7.13,0-12.91,5.78-12.91,12.91v22.896c-0.083,0.326-0.168,0.65-0.271,0.959c-0.72,2.163-6.512,4.778-8.965,8
			c-5.267,6.919-7.091,17.481-5.786,26.002c1.317,4.468,6.985-1.699,8.241,5.297c-1.359,20.906,1.805,43.907,0.055,64.529
			c-1.51,17.795-7.862,14.811-18.126,25.136c-5.061,5.09-27.542,30.567-27.818,35.829l20.408,22.145l0.058,111.973l-17.007,15.246
			l15.284,8.484v24.602h-44.105v0.421h-5.809v38.708h238.009v-38.708h-0.244c-5.581-5.12-26.708-18.228-26.708-18.228l1.597-174.874
			c65.74-5.681,135.934-8.298,200.62,6.549c11.012,2.528,24.494,5.591,33.582,12.222v213.039h110.262v-38.708v-0.421H-1601.639z
			 M-1935.373,535.552l13.125-6.513v37.653c-4.601,0.971-9.144,2.251-13.571,3.759L-1935.373,535.552z M-1962.959,552.935
			l18.66-11.028c0.448,10.394-0.614,20.997,0,31.389c0.005,0.083,0.077,0.182,0.172,0.288c-6.752,2.779-13.104,5.95-18.831,9.142
			V552.935z M-1962.959,697.783l27.141-6.323v63.194l-27.141,7.306V697.783z M-1988.405,568.205l18.66-11.029v29.498
			c-8.685,5.28-15.281,10.129-18.66,12.735V568.205z M-1996.886,705.687l27.142-6.323v64.423l-27.142,7.306V705.687z
			 M-2030.813,713.591l27.141-6.323v65.652l-27.141,7.306V713.591z M-2027.42,965.517l-23.749,5.703v-99.929l23.749-5.612V965.517z
			 M-1988.405,956.147l-27.141,6.518v-99.793l27.141-6.414V956.147z M-1951.085,947.185l-25.445,6.111v-99.643l25.445-6.013V947.185
			z M-1915.924,938.74l-23.287,5.593v-99.5l23.714-5.604L-1915.924,938.74z M-1910.769,747.912l-18.263,4.916v-62.949l18.263-4.255
			V747.912z M-1903.274,564.745c-3.83-0.062-7.675,0.159-11.505,0.655l-0.682-0.589l-1.004-39.428l13.191-5.772V564.745z
			 M-1842.603,126.481v7.91v5.375l-10.716-8.92L-1842.603,126.481z M-1667.805,781.133
			c-81.583-37.386-198.848-32.662-234.086-28.838V570.451h8.864v-54.99c0,0-0.095-48.623,25.074-71.103l90.38-0.495
			c52.941,36.483,89.009,95.907,102.776,158.492C-1662.004,660.519-1670.035,721.889-1667.805,781.133z"/>
		<g>
			<path style="fill:#313164;" d="M-2318.908,1376.341l-19.838,51.445h10.177l4.184-10.598h20.992l4.025,10.598h10.177
				l-19.785-51.445H-2318.908z M-2320.783,1407.64l6.901-17.66l6.862,17.66H-2320.783z"/>
			<path style="fill:#313164;" d="M-2256.963,1408.384c0,3.449-0.239,5.784-0.717,7.007c-0.478,1.223-1.341,2.231-2.588,3.022
				c-1.246,0.793-2.734,1.189-4.458,1.189c-1.632,0-3.025-0.354-4.179-1.065c-1.154-0.711-1.982-1.66-2.483-2.849
				c-0.503-1.187-0.752-3.215-0.752-6.08v-33.266h-9.828v30.67c0,6.133,0.594,10.487,1.784,13.062
				c1.189,2.577,3.164,4.722,5.927,6.435c2.763,1.714,6.009,2.572,9.74,2.572c2.844,0,5.338-0.45,7.485-1.347
				c2.145-0.897,4.039-2.278,5.683-4.145c1.644-1.865,2.757-3.8,3.34-5.805c0.582-2.005,0.874-5.595,0.874-10.772v-30.67h-9.828
				V1408.384z"/>
			<path style="fill:#313164;" d="M-2213.326,1402.744c-0.795-0.816-3.06-2.785-6.797-5.91c-3.993-3.38-6.387-5.582-7.18-6.609
				c-0.585-0.77-0.877-1.584-0.877-2.448c0-0.862,0.409-1.637,1.227-2.325c0.818-0.688,1.868-1.032,3.152-1.032
				c2.639,0,5.233,1.773,7.778,5.315l7.252-6.4c-2.707-3.147-5.223-5.315-7.546-6.504c-2.321-1.19-4.768-1.784-7.335-1.784
				c-3.991,0-7.348,1.276-10.067,3.83c-2.72,2.552-4.079,5.612-4.079,9.18c0,2.471,0.816,4.949,2.451,7.432
				s5.254,6.009,10.86,10.579c2.943,2.401,4.847,4.184,5.711,5.35c0.864,1.166,1.296,2.331,1.296,3.497
				c0,1.283-0.572,2.414-1.716,3.393c-1.144,0.979-2.557,1.469-4.237,1.469c-3.223,0-6.072-2.274-8.547-6.819l-8.232,4.966
				c1.937,3.846,4.265,6.667,6.985,8.463c2.719,1.795,5.91,2.694,9.575,2.694c4.69,0,8.496-1.376,11.412-4.126
				c2.918-2.752,4.377-6.237,4.377-10.458c0-2.168-0.416-4.168-1.245-5.998C-2209.935,1406.668-2211.341,1404.75-2213.326,1402.744z
				"/>
			<polygon style="fill:#313164;" points="-2203.594,1385.991 -2194.467,1385.991 -2194.467,1427.785 -2184.534,1427.785 
				-2184.534,1385.991 -2175.162,1385.991 -2175.162,1376.341 -2203.594,1376.341 			"/>
			<rect x="-2169.147" y="1376.341" style="fill:#313164;" width="9.722" height="51.445"/>
			<polygon style="fill:#313164;" points="-2116.967,1410.194 -2138.98,1376.341 -2148.373,1376.341 -2148.373,1427.785 
				-2138.581,1427.785 -2138.581,1394.035 -2116.594,1427.785 -2107.176,1427.785 -2107.176,1376.341 -2116.967,1376.341 			"/>
			<path style="fill:#313164;" d="M-2059.689,1376.341l-19.84,51.445h10.177l4.186-10.598h20.991l4.026,10.598h10.177
				l-19.787-51.445H-2059.689z M-2061.566,1407.64l6.903-17.66l6.86,17.66H-2061.566z"/>
			<polygon style="fill:#313164;" points="-1983.911,1376.341 -1995.944,1412.222 -2007.87,1376.341 -2017.411,1376.341 
				-2026.317,1427.785 -2016.77,1427.785 -2011.122,1395.295 -2000.29,1427.785 -1991.659,1427.785 -1980.73,1395.295 
				-1975.214,1427.785 -1965.746,1427.785 -1974.375,1376.341 			"/>
			<path style="fill:#313164;" d="M-1942.251,1376.341l-19.84,51.445h10.177l4.186-10.598h20.991l4.026,10.598h10.177
				l-19.787-51.445H-1942.251z M-1944.127,1407.64l6.903-17.66l6.86,17.66H-1944.127z"/>
			<polygon style="fill:#313164;" points="-1910.034,1385.991 -1900.906,1385.991 -1900.906,1427.785 -1890.974,1427.785 
				-1890.974,1385.991 -1881.601,1385.991 -1881.601,1376.341 -1910.034,1376.341 			"/>
			<polygon style="fill:#313164;" points="-1874.85,1427.785 -1846.767,1427.785 -1846.767,1418.167 -1865.128,1418.167 
				-1865.128,1404.633 -1846.767,1404.633 -1846.767,1395.226 -1865.128,1395.226 -1865.128,1385.922 -1846.767,1385.922 
				-1846.767,1376.341 -1874.85,1376.341 			"/>
			<path style="fill:#313164;" d="M-1812.984,1408.384c0,3.449-0.239,5.784-0.717,7.007c-0.478,1.223-1.34,2.231-2.589,3.022
				c-1.246,0.793-2.734,1.189-4.458,1.189c-1.632,0-3.025-0.354-4.179-1.065c-1.154-0.711-1.982-1.66-2.483-2.849
				c-0.503-1.187-0.752-3.215-0.752-6.08v-33.266h-9.828v30.67c0,6.133,0.594,10.487,1.784,13.062
				c1.189,2.577,3.164,4.722,5.927,6.435c2.763,1.714,6.009,2.572,9.74,2.572c2.844,0,5.338-0.45,7.485-1.347
				c2.145-0.897,4.039-2.278,5.683-4.145c1.644-1.865,2.756-3.8,3.34-5.805c0.582-2.005,0.874-5.595,0.874-10.772v-30.67h-9.828
				V1408.384z"/>
			<path style="fill:#313164;" d="M-1763.025,1399.755c1.619-2.274,2.43-5.101,2.43-8.481c0-3.218-0.734-6.004-2.201-8.359
				c-1.467-2.356-3.406-4.039-5.817-5.055c-2.41-1.014-6.458-1.52-12.139-1.52h-10.375v51.445h9.793v-21.789h0.895l11.569,21.789
				h10.705l-12.187-22.872C-1767.087,1403.748-1764.646,1402.026-1763.025,1399.755z M-1771.834,1395.221
				c-1.174,0.819-3.317,1.228-6.431,1.228h-3.068v-10.561h2.684c2.603,0,4.394,0.181,5.37,0.544c0.976,0.363,1.754,0.96,2.336,1.789
				c0.58,0.831,0.87,1.807,0.87,2.93C-1770.073,1393.046-1770.66,1394.403-1771.834,1395.221z"/>
			<path style="fill:#313164;" d="M-1701.439,1399.755c1.621-2.274,2.43-5.101,2.43-8.481c0-3.218-0.734-6.004-2.201-8.359
				c-1.467-2.356-3.406-4.039-5.816-5.055c-2.411-1.014-6.456-1.52-12.139-1.52h-10.374v51.445h9.792v-21.789h0.897l11.569,21.789
				h10.705l-12.187-22.872C-1705.502,1403.748-1703.06,1402.026-1701.439,1399.755z M-1710.246,1395.221
				c-1.174,0.819-3.319,1.228-6.433,1.228h-3.068v-10.561h2.686c2.603,0,4.392,0.181,5.368,0.544
				c0.976,0.363,1.754,0.96,2.336,1.789c0.58,0.831,0.872,1.807,0.872,2.93C-1708.486,1393.046-1709.073,1394.403-1710.246,1395.221
				z"/>
			<path style="fill:#313164;" d="M-1672.962,1376.341l-19.838,51.445h10.177l4.184-10.598h20.992l4.024,10.598h10.177
				l-19.786-51.445H-1672.962z M-1674.837,1407.64l6.901-17.66l6.862,17.66H-1674.837z"/>
			<path style="fill:#313164;" d="M-1607.37,1379.12c-3.634-1.853-9.19-2.779-16.666-2.779h-11.602v51.445h11.776
				c6.662,0,11.345-0.42,14.047-1.26c2.702-0.839,5.212-2.354,7.53-4.547c2.318-2.191,4.135-4.948,5.452-8.27
				c1.316-3.324,1.973-6.966,1.973-10.929c0-5.573-1.175-10.446-3.528-14.619C-1600.743,1383.987-1603.735,1380.973-1607.37,1379.12
				z M-1606.681,1411.515c-1.281,2.428-2.931,4.155-4.948,5.182c-2.018,1.027-5.264,1.542-9.74,1.542h-4.547v-32.456h3.324
				c6.085,0,10.502,1.354,13.254,4.061c3.055,3.012,4.582,7.247,4.582,12.709C-1604.757,1406.1-1605.398,1409.088-1606.681,1411.515
				z"/>
			<rect x="-1586.221" y="1376.341" style="fill:#313164;" width="9.722" height="51.445"/>
			<path style="fill:#313164;" d="M-1541.193,1375.046c-4.807,0-9.292,1.207-13.456,3.619c-4.165,2.414-7.437,5.683-9.816,9.811
				c-2.379,4.127-3.569,8.649-3.569,13.569c0,7.345,2.555,13.687,7.664,19.025c5.109,5.338,11.524,8.009,19.246,8.009
				c7.373,0,13.643-2.6,18.81-7.8c5.168-5.198,7.752-11.552,7.752-19.06c0-7.577-2.618-14.001-7.856-19.27
				C-1527.656,1377.681-1533.914,1375.046-1541.193,1375.046z M-1529.255,1414.564c-3.268,3.358-7.224,5.037-11.869,5.037
				c-4.107,0-7.749-1.294-10.922-3.882c-4.084-3.311-6.126-7.81-6.126-13.499c0-5.106,1.622-9.313,4.867-12.625
				c3.243-3.311,7.246-4.966,12.007-4.966c4.715,0,8.716,1.697,12.007,5.089c3.291,3.391,4.938,7.536,4.938,12.433
				C-1524.354,1407.07-1525.987,1411.208-1529.255,1414.564z"/>
			<path style="fill:#313164;" d="M-1460.578,1384.523c5.823,0,11.064,2.463,15.723,7.387l6.849-6.529
				c-2.844-3.306-6.23-5.854-10.159-7.646c-3.929-1.794-8.014-2.689-12.258-2.689c-4.99,0-9.648,1.212-13.972,3.637
				c-4.324,2.425-7.647,5.63-9.966,9.617c-2.321,3.988-3.48,8.547-3.48,13.676c0,7.926,2.547,14.425,7.642,19.497
				c5.094,5.071,11.64,7.607,19.637,7.607c4.336,0,8.195-0.719,11.575-2.151c3.381-1.434,6.972-4.006,10.773-7.716l-6.639-6.928
				c-2.819,2.801-5.404,4.732-7.757,5.793c-2.353,1.063-4.951,1.592-7.792,1.592c-3.332,0-6.361-0.758-9.086-2.275
				c-2.725-1.517-4.834-3.606-6.324-6.267c-1.49-2.659-2.235-5.706-2.235-9.137c0-4.925,1.681-9.066,5.048-12.428
				C-1469.635,1386.204-1465.495,1384.523-1460.578,1384.523z"/>
			<polygon style="fill:#313164;" points="-1419.646,1376.341 -1429.437,1376.341 -1429.437,1427.785 -1405.376,1427.785 
				-1405.376,1418.447 -1419.646,1418.447 			"/>
			<path style="fill:#313164;" d="M-1373.272,1408.384c0,3.449-0.239,5.784-0.717,7.007c-0.478,1.223-1.34,2.231-2.589,3.022
				c-1.246,0.793-2.734,1.189-4.458,1.189c-1.632,0-3.025-0.354-4.179-1.065c-1.154-0.711-1.982-1.66-2.483-2.849
				c-0.503-1.187-0.752-3.215-0.752-6.08v-33.266h-9.828v30.67c0,6.133,0.594,10.487,1.784,13.062
				c1.189,2.577,3.164,4.722,5.927,6.435c2.763,1.714,6.01,2.572,9.74,2.572c2.844,0,5.338-0.45,7.485-1.347
				c2.145-0.897,4.039-2.278,5.683-4.145c1.644-1.865,2.757-3.8,3.34-5.805c0.582-2.005,0.874-5.595,0.874-10.772v-30.67h-9.827
				V1408.384z"/>
			<path style="fill:#313164;" d="M-1322.037,1404.964c-1.446-2.203-3.731-4.039-6.855-5.508c1.865-1.398,3.212-2.897,4.039-4.494
				c0.828-1.596,1.241-3.375,1.241-5.332c0-3.009-0.91-5.619-2.73-7.834c-1.822-2.216-4.273-3.731-7.355-4.547
				c-2.171-0.605-5.602-0.908-10.294-0.908h-8.088v51.445h14.424c4.155,0,7.411-0.589,9.768-1.766
				c2.358-1.177,4.283-2.956,5.777-5.333c1.494-2.379,2.24-5.014,2.24-7.905
				C-1319.869,1409.774-1320.591,1407.169-1322.037,1404.964z M-1342.286,1385.677h2.528c2.245,0,3.919,0.473,5.02,1.418
				c1.1,0.943,1.65,2.221,1.65,3.828c0,1.726-0.58,3.09-1.738,4.092c-1.159,1.004-2.933,1.504-5.318,1.504h-2.142V1385.677z
				 M-1331.609,1416.909c-1.413,1.026-4.155,1.538-8.224,1.538h-2.453v-13.184h2.033c3.858,0,6.616,0.641,8.276,1.922
				c1.66,1.283,2.491,3.032,2.491,5.246C-1329.485,1414.39-1330.194,1415.882-1331.609,1416.909z"/>
		</g>
		<g>
			<path style="fill:#313164;" d="M-2331.901,882.175h17.706v62.158h-11.748v-51.045h-12.803L-2331.901,882.175z"/>
			<path style="fill:#313164;" d="M-2274.307,945.897l-10.053-4.992l10.891-21.165c-5.278,0-9.765-1.884-13.462-5.655
				c-3.697-3.771-5.546-8.458-5.546-14.057c0-5.43,1.895-10.024,5.684-13.781c3.788-3.757,8.359-5.635,13.712-5.635
				c5.605,0,10.275,1.948,14.008,5.844c3.732,3.896,5.598,8.378,5.598,13.442c0,1.914-0.289,3.835-0.865,5.761
				c-0.578,1.928-1.909,4.902-3.994,8.926L-2274.307,945.897z M-2272.828,908.541c2.197,0,4.043-0.801,5.536-2.402
				s2.24-3.582,2.24-5.942c0-2.416-0.782-4.44-2.346-6.07s-3.387-2.444-5.472-2.444c-2.197,0-4.084,0.807-5.662,2.422
				c-1.578,1.617-2.366,3.633-2.366,6.05c0,2.388,0.767,4.382,2.303,5.984C-2277.061,907.74-2275.137,908.541-2272.828,908.541z"/>
			<path style="fill:#313164;" d="M-2234.967,882.175h17.706v62.158h-11.748v-51.045h-12.803L-2234.967,882.175z"/>
			<path style="fill:#313164;" d="M-2175.639,880.611l10.079,5.04l-10.881,21.117c5.267,0,9.747,1.886,13.437,5.661
				c3.69,3.775,5.536,8.466,5.536,14.071c0,5.408-1.895,9.994-5.683,13.755c-3.79,3.761-8.36,5.641-13.712,5.641
				c-5.606,0-10.276-1.95-14.009-5.852c-3.733-3.902-5.598-8.374-5.598-13.416c0-1.916,0.289-3.847,0.866-5.791
				c0.577-1.942,1.908-4.928,3.993-8.958L-2175.639,880.611z M-2177.118,917.965c-2.197,0-4.043,0.797-5.536,2.386
				c-1.493,1.594-2.239,3.586-2.239,5.98s0.782,4.41,2.344,6.044c1.564,1.633,3.387,2.45,5.472,2.45
				c2.198,0,4.085-0.803,5.662-2.408s2.366-3.635,2.366-6.086c0-2.394-0.768-4.386-2.303-5.98
				C-2172.886,918.762-2174.808,917.965-2177.118,917.965z"/>
			<rect x="-2341.43" y="848.84" style="fill:#C16435;" width="183.961" height="8.82"/>
			<rect x="-2341.43" y="968.011" style="fill:#C16435;" width="183.961" height="8.82"/>
		</g>
		<g>
			<path style="fill:#313164;" d="M-1494.596,902.205h-11.536c0.31-6.705,2.415-11.98,6.317-15.826
				c3.901-3.845,8.909-5.767,15.022-5.767c3.775,0,7.105,0.797,9.993,2.386c2.887,1.592,5.198,3.888,6.93,6.888
				c1.733,3,2.599,6.05,2.599,9.149c0,3.689-1.05,7.661-3.149,11.916c-2.1,4.253-5.94,9.281-11.521,15.085l-6.975,7.352h22.153
				v10.944h-43.059v-5.663l19.226-19.607c4.648-4.703,7.74-8.486,9.276-11.344c1.535-2.859,2.303-5.444,2.303-7.755
				c0-2.394-0.796-4.372-2.387-5.936c-1.592-1.564-3.641-2.345-6.148-2.345c-2.535,0-4.648,0.944-6.339,2.831
				S-1494.483,898.964-1494.596,902.205z"/>
			<path style="fill:#313164;" d="M-1437.171,880.611c4.536,0,8.444,1.114,11.726,3.339c3.282,2.225,5.818,5.627,7.606,10.203
				c1.789,4.58,2.683,10.952,2.683,19.121c0,8.255-0.908,14.677-2.725,19.268c-1.818,4.594-4.262,7.966-7.331,10.121
				c-3.071,2.155-6.945,3.233-11.62,3.233c-4.677,0-8.606-1.086-11.79-3.255c-3.184-2.169-5.677-5.464-7.479-9.888
				c-1.804-4.422-2.705-10.717-2.705-18.888c0-11.408,1.761-19.677,5.282-24.804
				C-1449.609,883.428-1444.158,880.611-1437.171,880.611z M-1436.896,891.85c-1.997,0-3.768,0.641-5.314,1.924
				c-1.547,1.281-2.727,3.486-3.542,6.611c-0.816,3.127-1.223,7.705-1.223,13.735c0,7.858,0.934,13.289,2.805,16.288
				c1.869,3,4.294,4.5,7.274,4.5c2.866,0,5.144-1.422,6.83-4.267c2.053-3.436,3.079-9.183,3.079-17.241
				c0-8.169-0.921-13.802-2.762-16.902C-1431.59,893.4-1433.973,891.85-1436.896,891.85z"/>
			<path style="fill:#313164;" d="M-1397.662,902.205h-11.536c0.31-6.705,2.415-11.98,6.317-15.826
				c3.901-3.845,8.909-5.767,15.023-5.767c3.775,0,7.105,0.797,9.993,2.386c2.887,1.592,5.198,3.888,6.93,6.888
				c1.733,3,2.599,6.05,2.599,9.149c0,3.689-1.05,7.661-3.149,11.916c-2.1,4.253-5.94,9.281-11.521,15.085l-6.975,7.352h22.153
				v10.944h-43.059v-5.663l19.226-19.607c4.648-4.703,7.74-8.486,9.276-11.344c1.535-2.859,2.303-5.444,2.303-7.755
				c0-2.394-0.796-4.372-2.387-5.936s-3.641-2.345-6.148-2.345c-2.535,0-4.648,0.944-6.339,2.831
				S-1397.549,898.964-1397.662,902.205z"/>
			<path style="fill:#313164;" d="M-1349.827,882.175h29.114v10.944h-20.282l-2.536,11.283c0.704-0.197,1.394-0.345,2.071-0.444
				s1.324-0.147,1.943-0.147c5.634,0,10.318,1.922,14.051,5.767c3.732,3.846,5.598,8.769,5.598,14.769
				c0,6.058-2.064,11.163-6.19,15.318c-4.127,4.155-9.148,6.233-15.064,6.233c-5.297,0-9.845-1.508-13.648-4.522
				c-3.804-3.014-6.297-7.141-7.48-12.382h12.424c0.957,1.944,2.218,3.416,3.782,4.416c1.563,1,3.289,1.5,5.176,1.5
				c2.62,0,4.845-0.942,6.676-2.831c1.831-1.886,2.747-4.311,2.747-7.269c0-2.872-0.853-5.231-2.557-7.078
				c-1.705-1.845-3.768-2.767-6.19-2.767c-1.297,0-2.572,0.325-3.825,0.972c-1.254,0.647-2.486,1.619-3.697,2.914l-9.634-2.153
				L-1349.827,882.175z"/>
			<rect x="-1506.131" y="848.84" style="fill:#C16435;" width="186.262" height="8.82"/>
			<rect x="-1506.131" y="968.011" style="fill:#C16435;" width="186.262" height="8.82"/>
		</g>
	</g>
</g>
</svg>
